<?xml version="1.0" encoding="utf-8"?>
<!-- Generator: Adobe Illustrator 26.2.1, SVG Export Plug-In . SVG Version: 6.00 Build 0)  -->
<svg version="1.1" id="Capa_1" xmlns="http://www.w3.org/2000/svg" xmlns:xlink="http://www.w3.org/1999/xlink" x="0px" y="0px"
	 viewBox="0 0 491.4 456.51" style="enable-background:new 0 0 491.4 456.51;" xml:space="preserve">
<style type="text/css">
	.st0{fill:#F0AB44;}
	.st1{opacity:0.7;fill:#FFFFFF;enable-background:new    ;}
	.st2{opacity:0.2;}
	.st3{fill:none;stroke:#020203;stroke-linejoin:round;}
	.st4{fill:#F0AB44;stroke:#263339;stroke-miterlimit:10;}
	.st5{fill:#CAC9C9;stroke:#263339;stroke-miterlimit:10;}
	.st6{fill:#FFFFFF;stroke:#263339;stroke-miterlimit:10;}
	.st7{fill:none;stroke:#263339;stroke-miterlimit:10;}
	.st8{fill:#263339;stroke:#263339;stroke-miterlimit:10;}
	.st9{fill:none;stroke:#F0AB44;stroke-width:5;stroke-miterlimit:10;}
	.st10{fill:none;stroke:#F0AB44;stroke-miterlimit:10;}
	.st11{fill:#263339;}
	.st12{fill:#263339;stroke:#263339;stroke-linecap:round;stroke-linejoin:round;}
	.st13{fill:#FFFFFF;stroke:#263339;stroke-linecap:round;stroke-linejoin:round;}
	.st14{fill:#B6B6B5;stroke:#263339;stroke-miterlimit:10;}
	.st15{fill:#B6B6B5;stroke:#263339;stroke-linecap:round;stroke-linejoin:round;}
	.st16{fill:none;stroke:#263339;stroke-linecap:round;stroke-linejoin:round;}
	.st17{fill:none;stroke:#263339;stroke-width:2;stroke-linecap:round;stroke-linejoin:round;}
	.st18{fill:#23A587;}
	.st19{fill:#9FC751;}
	.st20{fill:#9EC754;}
	.st21{fill:#9EC754;stroke:#263339;stroke-miterlimit:10;}
	.st22{fill:none;stroke:#9EC754;stroke-width:5;stroke-miterlimit:10;}
	.st23{fill:none;stroke:#9EC754;stroke-miterlimit:10;}
</style>
<g>
	<g id="freepik--background-simple--inject-1_00000105407906882816061410000011579298867114214537_">
		<path class="st0" d="M-200.44,575.37c-11.6-15.39-26.11-28.36-42.7-38.17c-27.55-16.37-58.64-26.22-90.1-31.67
			c-99.55-17.23-154.12,1-195.28,30.63c-27.26,19.67-35.83,61.49-43.88,91.9c-4.52,17.07-8.55,34.32-14.17,51.07
			c-8.73,26-28.56,47-35.17,73.81c-7,28.29-6.45,58.09,3.24,85.71c19.15,54.56,51.69,86.18,126.36,96.68
			c40,5.64,72.15-10.89,105.34-30.78c20.46-12.26,41.67-23.31,65.15-28.31c24.8-5.27,50.31-6,75.18-10.9
			c55.63-10.95,73.48-63.6,80.71-113.47C-157.01,691.49-162.49,625.5-200.44,575.37z"/>
		<path class="st1" d="M-200.44,575.37c-11.6-15.39-26.11-28.36-42.7-38.17c-27.55-16.37-58.64-26.22-90.1-31.67
			c-99.55-17.23-154.12,1-195.28,30.63c-27.26,19.67-35.83,61.49-43.88,91.9c-4.52,17.07-8.55,34.32-14.17,51.07
			c-8.73,26-28.56,47-35.17,73.81c-7,28.29-6.45,58.09,3.24,85.71c19.15,54.56,51.69,86.18,126.36,96.68
			c40,5.64,72.15-10.89,105.34-30.78c20.46-12.26,41.67-23.31,65.15-28.31c24.8-5.27,50.31-6,75.18-10.9
			c55.63-10.95,73.48-63.6,80.71-113.47C-157.01,691.49-162.49,625.5-200.44,575.37z"/>
	</g>
	<g id="freepik--Window--inject-1_00000063614923964068973940000008981369397267479937_">
		<g class="st2">
			<polygon class="st3" points="-164.6,529.94 -355.36,529.94 -362.13,546.17 -164.6,546.17 			"/>
			<polygon class="st3" points="-164.6,546.17 -355.36,546.17 -362.13,562.41 -164.6,562.41 			"/>
			<polygon class="st3" points="-164.6,562.41 -355.36,562.41 -362.13,578.64 -164.6,578.64 			"/>
			<polygon class="st3" points="-164.6,578.64 -355.36,578.64 -362.13,594.88 -164.6,594.88 			"/>
			<polygon class="st3" points="-164.6,594.88 -355.36,594.88 -362.13,611.11 -164.6,611.11 			"/>
			<polygon class="st3" points="-164.6,611.11 -355.36,611.11 -362.13,627.35 -164.6,627.35 			"/>
			<polygon class="st3" points="-164.6,627.35 -355.36,627.35 -362.13,643.58 -164.6,643.58 			"/>
			<polygon class="st3" points="-164.6,643.58 -355.36,643.58 -362.13,659.82 -164.6,659.82 			"/>
			<polygon class="st3" points="-164.6,659.82 -355.36,659.82 -362.13,676.05 -164.6,676.05 			"/>
			<polygon class="st3" points="-164.6,676.05 -355.36,676.05 -362.13,692.29 -164.6,692.29 			"/>
			<polygon class="st3" points="-164.6,692.29 -355.36,692.29 -362.13,708.52 -164.6,708.52 			"/>
			<polygon class="st3" points="-164.6,708.52 -355.36,708.52 -362.13,724.76 -164.6,724.76 			"/>
			<polygon class="st3" points="-164.6,724.76 -355.36,724.76 -362.13,740.99 -164.6,740.99 			"/>
			<polygon class="st3" points="-164.6,740.99 -355.36,740.99 -362.13,757.23 -164.6,757.23 			"/>
			<polygon class="st3" points="-164.6,757.23 -355.36,757.23 -362.13,773.46 -164.6,773.46 			"/>
			<polygon class="st3" points="-164.6,773.46 -355.36,773.46 -362.13,789.7 -164.6,789.7 			"/>
			<rect x="-364.16" y="524.53" class="st3" width="203.61" height="270.58"/>
		</g>
	</g>
	<g id="freepik--Lamp--inject-1_00000033368293096843989510000005244974026069552024_">
		<g class="st2">
			<rect x="-604.85" y="892.7" class="st3" width="68.42" height="36.11"/>
			<rect x="-576.2" y="906.53" class="st3" width="11.11" height="5.38"/>
			<rect x="-608.36" y="845.77" class="st3" width="75.43" height="92.39"/>
			<rect x="-604.85" y="850.45" class="st3" width="68.42" height="36.11"/>
			<rect x="-576.2" y="864.28" class="st3" width="11.11" height="5.38"/>
			<rect x="-590.04" y="839.92" class="st3" width="26.9" height="5.85"/>
			<rect x="-580.1" y="821.8" class="st3" width="4.68" height="18.13"/>
			<rect x="-603.49" y="779.69" class="st3" width="50.29" height="42.1"/>
		</g>
	</g>
	<g id="freepik--Couch--inject-1_00000173846767302655720450000012158288842733608838_">
		<g class="st2">
			<path class="st3" d="M-253.24,894.42v-77.2c0.01-6.12-4.96-11.09-11.08-11.1c-0.01,0-0.01,0-0.02,0h-101.42v89.07"/>
			<path class="st3" d="M-364.91,806.12h-103.31c-6.12,0-11.09,4.97-11.09,11.09c0,0,0,0.01,0,0.01v77.2"/>
			<path class="st3" d="M-243.22,901.83v26h-122.49v-33.41h115.11c4.07-0.01,7.37,3.29,7.38,7.36
				C-243.22,901.8-243.22,901.82-243.22,901.83z"/>
			<path class="st3" d="M-364.78,894.42h-117.18c-4.07,0-7.37,3.3-7.37,7.37c0,0,0,0.01,0,0.01v26h124.55"/>
			<polyline class="st3" points="-489.33,938.67 -489.33,927.76 -243.01,927.76 -243.01,938.67 			"/>
			<path class="st3" d="M-479.31,850.12c-1.4-1.46-3.34-2.29-5.37-2.29h-22.31c-4.1-0.01-7.43,3.32-7.44,7.42c0,0,0,0.01,0,0.01
				v82.88"/>
			<path class="st3" d="M-220.71,937.6v-82.34c0-4.1-3.33-7.43-7.43-7.43h-22.31c-0.96,0-1.91,0.18-2.79,0.55"/>
		</g>
	</g>
	<g id="freepik--Certification--inject-1_00000034091892722227690060000013242717566652268425_">
		<path class="st4" d="M-203.68,522.89v241c0,6.08-4.92,11-11,11h-348c-6.08,0-11-4.92-11-11v-241c0-5.52,4.48-10,10-10h350
			C-208.16,512.89-203.68,517.37-203.68,522.89L-203.68,522.89z"/>
		<path class="st5" d="M-203.68,522.89v20.8h-370v-20.8c0-5.52,4.48-10,10-10h350C-208.16,512.89-203.68,517.37-203.68,522.89z"/>
		<path class="st6" d="M-335.22,539.66H-532.6c-1.85-0.01-3.35-1.51-3.35-3.36l0,0c0-1.85,1.5-3.35,3.35-3.36h197.38
			c1.86,0,3.36,1.5,3.36,3.36l0,0C-331.86,538.16-333.36,539.66-335.22,539.66z"/>
		<line class="st7" x1="-222.43" y1="533.61" x2="-209.67" y2="533.61"/>
		<line class="st7" x1="-222.43" y1="536.3" x2="-209.67" y2="536.3"/>
		<line class="st7" x1="-222.43" y1="538.99" x2="-209.67" y2="538.99"/>
		<path class="st8" d="M-203.68,522.89v6h-370v-6c0-5.52,4.48-10,10-10h350C-208.16,512.89-203.68,517.37-203.68,522.89z"/>
		<path class="st6" d="M-240.54,521.22c0.03-1.69-1.31-3.09-3-3.12c-1.69-0.03-3.09,1.31-3.12,3c-0.03,1.69,1.31,3.09,3,3.12
			c0.02,0,0.05,0,0.07,0c1.66,0.03,3.02-1.29,3.05-2.95C-240.54,521.26-240.54,521.24-240.54,521.22z"/>
		<path class="st6" d="M-227.9,521.22c0.03-1.68-1.32-3.07-3-3.1c-1.68-0.03-3.07,1.32-3.1,3c-0.03,1.68,1.32,3.07,3,3.1
			c0.02,0,0.03,0,0.05,0c1.66,0.03,3.02-1.29,3.05-2.95C-227.9,521.26-227.9,521.24-227.9,521.22z"/>
		<path class="st6" d="M-215.26,521.22c0.03-1.68-1.32-3.07-3-3.1c-1.68-0.03-3.07,1.32-3.1,3c-0.03,1.68,1.32,3.07,3,3.1
			c0.02,0,0.03,0,0.05,0c1.66,0.03,3.02-1.29,3.05-2.95C-215.26,521.26-215.26,521.24-215.26,521.22z"/>
		<rect x="-552.73" y="553.96" class="st6" width="329.11" height="205.96"/>
		<rect x="-544.34" y="562.49" class="st9" width="312.32" height="188.88"/>
		<rect x="-536.36" y="571.94" class="st10" width="296.36" height="170"/>
		<path class="st11" d="M-437.74,591.83v1.75h-2.06v-1.86c0-1.75-0.69-2.8-2.27-2.8c-1.58,0-2.27,1-2.27,2.8v10.26
			c0,1.74,0.72,2.8,2.27,2.8c1.55,0,2.27-1.06,2.27-2.8v-2.53h2.06v2.38c0,2.94-1.39,4.88-4.39,4.88s-4.35-1.94-4.35-4.88v-10
			c0-2.94,1.39-4.88,4.35-4.88C-439.17,586.95-437.74,588.88-437.74,591.83z"/>
		<path class="st11" d="M-428.87,595.73v1.94h-4.75v6.9h5.83v2h-8v-19.44h8v2h-5.83v6.63L-428.87,595.73z"/>
		<path class="st11" d="M-421.47,587.13c3.05,0,4.32,1.56,4.32,4.44v1.58c0,2.14-0.75,3.47-2.41,4c1.77,0.53,2.44,2,2.44,4.05v3
			c-0.06,0.8,0.07,1.6,0.39,2.33h-2.19c-0.31-0.74-0.43-1.55-0.36-2.35v-3.05c0-2.2-1-2.89-2.83-2.89h-1.53v8.29h-2.16v-19.4
			H-421.47z M-422.03,596.28c1.72,0,2.75-0.55,2.75-2.66v-1.86c0-1.74-0.64-2.66-2.25-2.66h-2.11v7.18H-422.03z"/>
		<path class="st11" d="M-412.05,606.54V589.1h-3.57v-2h9.31v2h-3.57v17.44L-412.05,606.54z"/>
		<path class="st11" d="M-402.65,587.13v19.41h-2.16v-19.41H-402.65z"/>
		<path class="st11" d="M-393.8,596.17v2h-4.47v8.4h-2.16v-19.44h7.71v2h-5.55v7.07L-393.8,596.17z"/>
		<path class="st11" d="M-388.84,587.13v19.41h-2.17v-19.41H-388.84z"/>
		<path class="st11" d="M-378.06,591.83v1.75h-2.08v-1.86c0-1.75-0.69-2.8-2.27-2.8s-2.28,1-2.28,2.8v10.26
			c0,1.74,0.72,2.8,2.28,2.8s2.27-1.06,2.27-2.8v-2.53h2.05v2.38c0,2.94-1.38,4.88-4.38,4.88s-4.35-1.94-4.35-4.88v-10
			c0-2.94,1.38-4.88,4.35-4.88S-378.06,588.88-378.06,591.83z"/>
		<path class="st11" d="M-373.9,602.63l-0.75,3.91h-2l3.71-19.41h3.13l3.72,19.41h-2.15l-0.75-3.91H-373.9z M-373.62,600.77h4.32
			l-2.19-11.2L-373.62,600.77z"/>
		<path class="st11" d="M-361.56,606.54V589.1h-3.58v-2h9.32v2h-3.58v17.44L-361.56,606.54z"/>
		<path class="st11" d="M-352.14,587.13v19.41h-2.16v-19.41H-352.14z"/>
		<path class="st11" d="M-350.14,591.83c0-3,1.47-4.88,4.43-4.88s4.47,1.91,4.47,4.88v10c0,2.94-1.47,4.88-4.47,4.88
			s-4.43-1.88-4.43-4.88V591.83z M-348.01,601.98c0,1.77,0.75,2.8,2.3,2.8s2.3-1,2.3-2.8v-10.27c0-1.75-0.72-2.8-2.3-2.8
			s-2.3,1-2.3,2.8V601.98z"/>
		<path class="st11" d="M-337.25,606.54h-1.89v-19.41h2.74l4.49,14v-14h1.92v19.41h-2.25l-5-15.69L-337.25,606.54z"/>
		<line class="st7" x1="-460.89" y1="617.36" x2="-312.02" y2="617.36"/>
		<line class="st7" x1="-260.04" y1="636.35" x2="-249.74" y2="636.35"/>
		<line class="st7" x1="-348.17" y1="636.35" x2="-265.48" y2="636.35"/>
		<line class="st7" x1="-396.04" y1="636.35" x2="-352.89" y2="636.35"/>
		<line class="st7" x1="-460.24" y1="636.35" x2="-400.4" y2="636.35"/>
		<line class="st7" x1="-499.05" y1="636.35" x2="-466.41" y2="636.35"/>
		<line class="st7" x1="-523.17" y1="636.35" x2="-503.76" y2="636.35"/>
		<line class="st7" x1="-399.31" y1="645.46" x2="-249.74" y2="645.46"/>
		<line class="st7" x1="-515.37" y1="645.46" x2="-404.02" y2="645.46"/>
		<line class="st7" x1="-523.17" y1="645.46" x2="-519.72" y2="645.46"/>
		<line class="st7" x1="-261.13" y1="654.57" x2="-249.74" y2="654.57"/>
		<line class="st7" x1="-322.42" y1="654.57" x2="-266.57" y2="654.57"/>
		<line class="st7" x1="-406.93" y1="654.57" x2="-326.77" y2="654.57"/>
		<line class="st7" x1="-419.26" y1="654.57" x2="-411.64" y2="654.57"/>
		<line class="st7" x1="-523.17" y1="654.57" x2="-425.79" y2="654.57"/>
		<line class="st7" x1="-295.22" y1="663.69" x2="-249.74" y2="663.69"/>
		<line class="st7" x1="-457.7" y1="663.69" x2="-299.57" y2="663.69"/>
		<line class="st7" x1="-472.21" y1="663.69" x2="-463.5" y2="663.69"/>
		<line class="st7" x1="-523.17" y1="663.69" x2="-476.92" y2="663.69"/>
		<line class="st7" x1="-278.17" y1="672.8" x2="-249.74" y2="672.8"/>
		<line class="st7" x1="-399.67" y1="672.8" x2="-283.97" y2="672.8"/>
		<line class="st7" x1="-446.1" y1="672.8" x2="-405.11" y2="672.8"/>
		<line class="st7" x1="-511.02" y1="672.8" x2="-451.54" y2="672.8"/>
		<line class="st7" x1="-523.17" y1="672.8" x2="-514.64" y2="672.8"/>
		<polygon class="st12" points="-512.12,712.94 -502.74,737.31 -498.2,726.29 -487.17,730.78 -497.95,707.9 		"/>
		<polygon class="st12" points="-515.47,707.64 -526.82,731.15 -515.68,726.94 -511.41,738.05 -502.09,714.54 		"/>
		<path class="st4" d="M-487.2,701.72c0-0.89,1.93-1.91,1.81-2.77s-2.26-1.31-2.51-2.14s1.31-2.37,0.95-3.16
			c-0.36-0.79-2.54-0.61-3-1.35c-0.46-0.74,0.59-2.64,0-3.3c-0.59-0.66-2.61,0.13-3.27-0.45s-0.16-2.69-0.9-3.17
			s-2.46,0.86-3.27,0.49s-0.91-2.54-1.76-2.79c-0.85-0.25-2.11,1.52-3,1.4c-0.89-0.12-1.59-2.18-2.48-2.18
			c-0.89,0-1.62,2.06-2.48,2.18c-0.86,0.12-2.16-1.64-3-1.4s-1,2.43-1.77,2.79s-2.52-1-3.26-0.49s-0.24,2.6-0.9,3.18
			c-0.66,0.58-2.7-0.22-3.27,0.44c-0.57,0.66,0.49,2.56,0,3.3s-2.65,0.55-3,1.35c-0.35,0.8,1.2,2.31,0.95,3.16
			c-0.25,0.85-2.38,1.27-2.51,2.14s1.81,1.88,1.81,2.77c0,0.89-1.93,1.9-1.81,2.76c0.12,0.86,2.26,1.31,2.51,2.15
			c0.25,0.84-1.32,2.36-0.95,3.15c0.37,0.79,2.54,0.62,3,1.35c0.46,0.73-0.6,2.64,0,3.3c0.6,0.66,2.6-0.13,3.27,0.45
			c0.67,0.58,0.16,2.69,0.9,3.17s2.46-0.86,3.26-0.49c0.8,0.37,0.92,2.54,1.77,2.79s2.11-1.52,3-1.39c0.89,0.13,1.59,2.17,2.48,2.17
			c0.89,0,1.62-2.05,2.48-2.17c0.86-0.12,2.16,1.63,3,1.39s1-2.43,1.77-2.79c0.77-0.36,2.52,1,3.26,0.49s0.24-2.6,0.9-3.17
			c0.66-0.57,2.7,0.21,3.27-0.45c0.57-0.66-0.49-2.56,0-3.3c0.49-0.74,2.65-0.55,3-1.35c0.35-0.8-1.2-2.31-0.95-3.16
			c0.25-0.85,2.38-1.26,2.51-2.14C-485.26,703.6-487.2,702.61-487.2,701.72z"/>
		<circle class="st12" cx="-504.61" cy="701.72" r="12.06"/>
		<polygon class="st0" points="-504.61,693.43 -502.75,699.16 -496.73,699.16 -501.6,702.69 -499.74,708.42 -504.61,704.88 
			-509.48,708.42 -507.62,702.69 -512.49,699.16 -506.47,699.16 		"/>
		<line class="st7" x1="-473.01" y1="695.94" x2="-427.01" y2="695.94"/>
		<line class="st7" x1="-473.01" y1="706.93" x2="-427.01" y2="706.93"/>
		<circle class="st10" cx="-275.45" cy="704.93" r="17.1"/>
		<circle class="st0" cx="-275.45" cy="704.96" r="11.6"/>
	</g>
	<g id="freepik--Plant--inject-1_00000071540244687635241200000007283503416607774092_">
		<path class="st4" d="M-219.14,897.33c0,0-3.5-6-5.25-9.25c-1.22-2.35-2.31-4.77-3.25-7.25c0,0,4.25,2.5,5.5,3.5s6.5,7.25,6.5,7.25
			l1.5-1.75l-1.75-5.75l5.75,6.5l2.75-11.75l4.25,11.25l8-10l0.5,10l9.75-7.75l-3.5,12.25l-3.75,5.25h-26.75L-219.14,897.33z"/>
		<path class="st4" d="M-220.64,897.33c0,0-2.25-1-6-5.5c-2.4-2.92-4.57-6.01-6.5-9.25c0,0,8.5,4.75,11.5,7
			c2.56,2.19,4.9,4.62,7,7.25c0,0-2.5-6.25-2.75-9.25s-0.5-9.5-0.5-9.5s7.25,7.25,7.75,9.25s3.25,8.75,3.25,8.75
			c0.83-3.05,1.5-6.13,2-9.25c0.5-3.75,4.5-9.75,4.5-9.75s0.5,4.25,0.75,8.5s-2.25,12.25-2.25,12.25s3.25-7.75,6.5-11.5
			c2.55-2.79,5.31-5.38,8.25-7.75c0,0-2.5,7.75-3.5,11.25c-0.93,2.72-2.19,5.33-3.75,7.75c2.35-2.97,4.85-5.8,7.5-8.5
			c2.44-1.95,5.03-3.71,7.75-5.25c0,0-2.75,5.25-4.75,8.25c-1.87,2.6-3.87,5.11-6,7.5h-30.75V897.33z"/>
		<polygon class="st6" points="-185.44,896.83 -187.17,912.08 -190.14,938.16 -221.47,938.16 -224.44,912.08 -226.17,896.83 		"/>
		<polygon class="st4" points="-187.17,912.08 -190.14,938.16 -221.47,938.16 -224.44,912.08 		"/>
		<circle class="st11" cx="-218.64" cy="917.83" r="1.5"/>
		<circle class="st11" cx="-207.64" cy="917.83" r="1.5"/>
		<circle class="st11" cx="-214.39" cy="925.58" r="1.5"/>
		<circle class="st11" cx="-201.14" cy="925.58" r="1.5"/>
		<circle class="st11" cx="-192.39" cy="925.58" r="1.5"/>
		<circle class="st11" cx="-196.64" cy="917.83" r="1.5"/>
		<circle class="st11" cx="-218.64" cy="931.83" r="1.5"/>
		<circle class="st11" cx="-207.64" cy="931.83" r="1.5"/>
		<circle class="st11" cx="-196.64" cy="931.83" r="1.5"/>
	</g>
	<g id="freepik--Character--inject-1_00000019636833191371354120000003184126743400597914_">
		
			<ellipse transform="matrix(2.443132e-03 -1 1 2.443132e-03 -1148.2308 387.3055)" class="st13" cx="-379.99" cy="769.17" rx="13.8" ry="9.03"/>
		<path class="st12" d="M-368.65,734.62c0,0-4.87,2.79-9.51-0.23s-1.39-4.4-0.46-6.26c0.93-1.86-1.39-2.32-1.86-4.87
			s1.16-4.64,2.09-4.87s0.7-2.79,0.7-5.34c0-2.55,3-4.87,4.4-4.87s2.32-1.85,3.25-4.17s2.79-4.41,6-3c3.21,1.41,4.87,1.39,6.5-0.93
			s5.56-2.78,7-1.62c1.44,1.16,2.08,3.48,4.87,1.16c2.79-2.32,6.26-1.85,7.88-0.23c1.62,1.62,1.39,3.48,4,2.55s6.72,0.46,7.65,3.25
			c0.93,2.79,6,5.8,7.89,5.1s5.1,0,3.47,3.48c-1.63,3.48,0.24,5.8,1.63,5.8s4.41,0.93,2.78,3.94s-2.78,5.34-0.93,6.26
			s4.87,1.16,2.56,5.11c-2.31,3.95-4.18,3.71-3.48,6c0.7,2.29,2.08,3,0,4.64s-4.64,2.32-4.64,3.71c0,1.39,2.78,2.08-0.47,3.24
			c-1.87,0.68-3.82,1.15-5.8,1.4c0,0-4.63-12.53-17.86-16.7c-13.23-4.17-20.87-3.72-23.89-2.09S-368.65,734.62-368.65,734.62z"/>
		<path class="st6" d="M-363.98,819.66l-17,7.84c0,0-8.79,48.66-8.16,62.16c0.63,13.5,8.16,47.09,8.16,47.09h40.84
			c0,0-6.28-41.13-3.14-55.88s10.68-55.25,10.68-55.25s-12.56-3.45-16.33-4.08C-352.7,820.91-363.98,819.66-363.98,819.66z"/>
		<path class="st11" d="M-383.48,842.39l47,4.06c-0.38,2-0.76,4-1.15,6l-46.8-4C-384.14,846.33-383.79,844.3-383.48,842.39z
			 M-343.26,880.83c0.36-1.7,0.78-3.74,1.24-6l-45.66-3.94c-0.26,2.1-0.49,4.13-0.7,6.06l45.12,3.91V880.83z M-339.26,860.61
			l-46.49-4c-0.3,2-0.6,4-0.88,6.06l46.19,4c0.43-1.94,0.82-3.96,1.22-6.02L-339.26,860.61z M-389.11,885.85
			c-0.06,1.44-0.07,2.71,0,3.77c0,0.73,0.09,1.52,0.16,2.35l44.81,2.86c0-2.14,0-4.2,0-6.12L-389.11,885.85z M-380.69,827.33
			l-0.28,0.13c0,0-0.4,2.24-1,5.89l47.16,4.08c0.42-2.27,0.81-4.31,1.13-6L-380.69,827.33z M-342.69,916.75l-42.45-0.45
			c0.4,2.12,0.81,4.17,1.2,6.12l42,0.48c-0.2-1.92-0.46-3.98-0.68-6.07L-342.69,916.75z M-386.96,906.67l43.57,2.56
			c-0.17-2.05-0.32-4.1-0.45-6.15l-44.11-2.59c0.36,2.03,0.7,4.11,1.06,6.22L-386.96,906.67z"/>
		<path class="st14" d="M-366.49,810.83c0,0-3.45,13.18-3.76,20.09c-0.31,6.91,6.9,12.55,17.26,11.61s12.24-12.24,12.24-15.07
			s0.61-26.63,0.61-26.63c-3.47,2.97-7.15,5.7-11,8.16C-357.07,812.75-366.49,810.83-366.49,810.83z"/>
		<path class="st8" d="M-357.07,822.17c9.81-4.7,14.7-13.93,16.91-19.79c0-1,0-1.56,0-1.56c-3.47,2.97-7.15,5.7-11,8.16
			c-6,3.77-15.38,1.89-15.38,1.89s-2.15,8.24-3.21,15.1C-365.34,825.42-361.05,824.13-357.07,822.17z"/>
		<path class="st15" d="M-323.45,760.47c0,0-0.4-13.92-5.57-21.88c-5.17-7.96-16.07-12.83-28.24-10.76
			c-15.1,2.6-21.88,13.92-24.27,23.47s0.4,23.47,0.4,33c0,9.53,11.14,26.65,14.32,29.44c3.18,2.79,8.09,3.71,13.7,0.87
			c5.15-2.62,13.62-11.53,18.79-16.7c5.17-5.17,8.25-20.55,9.05-24.13S-323.45,760.47-323.45,760.47z"/>
		<path class="st16" d="M-365.63,787.51c0,0-0.47,3,6.49,2.55"/>
		<path class="st16" d="M-367.72,795.39c0,0,8.12,5.57,16.24,0.24"/>
		<path class="st17" d="M-351.48,776.83c0,0,2.08-3.48,8.12-0.47"/>
		<path class="st11" d="M-367.72,774.75c0,1.67-0.78,3-1.74,3s-1.74-1.35-1.74-3c0-1.65,0.78-3,1.74-3S-367.72,773.09-367.72,774.75
			z"/>
		<path class="st16" d="M-375.14,765.24c0,0,2.09-4.64,9-2.32"/>
		<path class="st16" d="M-354.5,764.83c0,0,6.5-3.48,13.69,1.85"/>
		<path class="st12" d="M-357.26,727.83c-15.1,2.6-21.88,13.92-24.27,23.47c-0.5,2.12-0.79,4.28-0.88,6.46
			c0.78-2.43,4.83-13.09,16.31-16c13-3.24,24.36,0.93,28.3,6.5s3,12.76,4.41,16.24c0.88,2.2,5.3,5.52,8.43,7.66
			c0.72-4.27,1.51-11.74,1.51-11.74s-0.4-13.92-5.57-21.88C-334.19,730.58-345.09,725.76-357.26,727.83z"/>
		<path class="st4" d="M-327.36,762.92c0,0,1.16-12.29-2.32-20.41s-7.65-11.6-7.65-11.6s9.74,5.11,13.22,10s3.94,16.7,3,24.82
			l-7.19-1.16L-327.36,762.92z"/>
		<path class="st13" d="M-318.01,774.98c-1.4,7.49-6.51,12.82-11.42,11.91c-4.91-0.91-7.74-7.74-6.34-15.23
			c1.4-7.49,6.51-12.82,11.41-11.91C-319.46,760.66-316.61,767.49-318.01,774.98z"/>
		
			<ellipse transform="matrix(0.1836 -0.983 0.983 0.1836 -1027.3575 312.355)" class="st4" cx="-325.63" cy="774.69" rx="10.47" ry="6.85"/>
		<path class="st4" d="M-375.59,906.15c2.34,16.6,5.22,31.49,5.22,31.49h-17.15c0,0-4.39-22.61-9.73-35.16
			c-3-7.14-3.73-10-3.78-11.17c-2.33,5.55-16.85,39.84-19.45,41c-2.83,1.25-13.19-1-17-2.2s-4.07-6.59-3.44-8.79s27-65.93,29.5-70
			c2.34-4.15,4.14-8.58,5.34-13.19c0.31-1.88-0.32-6.28,2.51-7.84c1.71-0.95,13.73-3.73,23-5.79c6.06-1.35,10.93-2.38,10.93-2.38
			s-7.5,27.93-8.78,47.71c-0.55,8.77,1,23.09,2.83,36.31C-375.58,906.14-375.58,906.14-375.59,906.15z"/>
		<path class="st4" d="M-375.59,906.14c-2.16-3.55-10.92-18.79-12.09-34.66c-1.05-14.24,4.63-37.61,7.13-47
			c6.06-1.35,10.93-2.38,10.93-2.38s-7.52,27.95-8.8,47.73C-378.97,878.6-377.46,892.92-375.59,906.14z"/>
		<path class="st7" d="M-398.61,858.41c0.78-3.39,1.36-5.22,1.36-5.22"/>
		<path class="st7" d="M-400.7,890.55c0,0-1.89-6.6-0.32-18.52c0.42-3.15,0.87-5.95,1.32-8.36"/>
		<path class="st4" d="M-262.58,893.3c-7.22-0.32-43.32-22.81-43.32-22.81s-11.31,22.16-11.62,26.66s8.79,40.49,8.79,40.49h-38.61
			c0,0-1.17-12.63-1.41-26.48c-0.11-6.39,0-13,0.47-18.83c1.57-18.31,7.84-70,7.84-70l6.29,0.64c0,0,1.78,0.6,4.57,1.57
			c7.43,2.58,22,7.86,28.39,11.6c8.78,5.14,21,13.5,27,17.36c6,3.86,20.09,12.53,22.91,24.1S-255.36,893.62-262.58,893.3z"/>
		<path class="st7" d="M-329.58,824.5c-0.85,12.86-3.35,43.49-8.74,58.31c-5.16,14.17-8.87,24.16-10.43,28.35
			c-0.11-6.39,0-13,0.47-18.83c1.57-18.31,7.84-70,7.84-70l6.29,0.64C-334.15,822.97-332.37,823.53-329.58,824.5z"/>
		<line class="st7" x1="-305.9" y1="870.48" x2="-320.34" y2="865.99"/>
		<path class="st7" d="M-326.44,856.26c0.42,4.75,1.73,10,5.16,12.94"/>
		<path class="st7" d="M-326.31,846.39c-0.2,1.8-0.31,3.61-0.31,5.42"/>
		<path class="st7" d="M-328.14,863.09c0,0,3.45,6.43,7.53,8.68"/>
		<path class="st14" d="M-306.51,817.07c-0.58-2.36-0.88-4.77-0.9-7.2c0-3.87,0.9-6.05-0.51-5.92c-1.41,0.13-3.87,1.93-4.64,5
			s0.9,5.92,1.16,6.95c0.16,0.63,0.24,1.28,0.26,1.93c0,0-11.2,0.38-13.26,0.38s-4.12,1.16-4.12,3.09s2.19,3,2.19,3l1,0.52
			c0,0-1.29,2.44-0.39,3.73c0.5,0.74,1.11,1.39,1.81,1.93c-0.55,0.79-0.65,1.82-0.26,2.7c0.33,0.88,0.91,1.64,1.67,2.19
			c0,0-1.67,1.55,0.52,3.61s6.95,2.19,10.29,2.19s6.18,0.12,6.18,0.12l1.42,0.13l11.84,17.64l11.2-12.49c0,0-16.48-16-18.67-18.79
			C-301.91,824.99-306.51,817.07-306.51,817.07z"/>
		<path class="st4" d="M-281.42,845.08l-15.38,14.44c0,0,14.13,18.84,21.66,28.31c7.53,9.47,21.35,11,27.31,6.27
			c5.96-4.73,6.6-15.38,1.26-22S-281.42,845.08-281.42,845.08z"/>
		<path class="st14" d="M-384.34,920.93c0,0,22.58,3.9,24.69,3.9s24.39-5.72,25.89-4.52s11.44,9.64,13.85,12.05
			c1.43,1.42,2.65,3.05,3.61,4.82h-20.77l-6.32-1.51c0,0-5.36,2.48-8.37,2.48s-13.09-0.58-13.09-0.58l-17.74-0.29
			C-382.59,937.28-388.56,927.25-384.34,920.93z"/>
		<path class="st7" d="M-330.75,937.19c0,0-5.12-5.72-7.22-7.23c-1.27-0.92-2.68-1.64-4.17-2.13"/>
		<path class="st7" d="M-323.82,937.49c0,0-9.94-10.84-11.14-11.75c-1.33-0.77-2.75-1.37-4.22-1.8"/>
		<path class="st4" d="M-433.72,910.69c0,0-9,7.23-10.54,12c-1.54,4.77,0.6,10.54,5.42,12.35c4.82,1.81,58.58,2.79,58.58,2.79
			c-0.88,0.41-4.82-3.28-2.58-8.21c1.52-3.34,5.72-8.13,5.72-8.13l-44.86-11.44"/>
	</g>
	<g id="freepik--Device--inject-1_00000174600792554614386730000017246077755535810958_">
		<rect x="-542.38" y="935.79" class="st8" width="184.5" height="2.37"/>
		<polygon class="st6" points="-424.81,938.16 -539.88,938.16 -550.52,858.14 -435.45,858.14 		"/>
		<polygon class="st6" points="-427.15,938.16 -542.21,938.16 -552.85,858.14 -437.79,858.14 		"/>
		<path class="st8" d="M-533.32,938.16h105.82l-8-60.4c-14.16,9-31.41,20.65-50.21,35C-500.04,923.85-516.13,932.43-533.32,938.16z"
			/>
		<ellipse class="st6" cx="-493.66" cy="897.4" rx="7.56" ry="6.98"/>
	</g>
	<g id="freepik--Desk--inject-1_00000004539640640224496790000017450725116801946282_">
		<line class="st7" x1="-630.97" y1="938.16" x2="-169.14" y2="938.16"/>
	</g>
</g>
<rect x="87.18" y="-118.97" class="st18" width="162.95" height="69.43"/>
<rect x="349.46" y="-152.14" class="st19" width="124.92" height="117.26"/>
<g id="freepik--background-simple--inject-1_00000096774593268210875230000003258086846251773345_">
	<path class="st20" d="M436.2,88.05c-11.6-15.39-26.11-28.36-42.7-38.17c-27.55-16.37-58.64-26.22-90.1-31.67
		c-99.55-17.23-154.12,1-195.28,30.63c-27.26,19.67-35.83,61.49-43.88,91.9c-4.52,17.07-8.55,34.32-14.17,51.07
		c-8.73,26-28.56,47-35.17,73.81c-7,28.29-6.45,58.09,3.24,85.71c19.15,54.56,51.69,86.18,126.36,96.68
		c40,5.64,72.15-10.89,105.34-30.78c20.46-12.26,41.67-23.31,65.15-28.31c24.8-5.27,50.31-6,75.18-10.9
		c55.63-10.95,73.48-63.6,80.71-113.47C479.63,204.17,474.15,138.18,436.2,88.05z"/>
	<path class="st1" d="M436.2,88.05c-11.6-15.39-26.11-28.36-42.7-38.17c-27.55-16.37-58.64-26.22-90.1-31.67
		c-99.55-17.23-154.12,1-195.28,30.63c-27.26,19.67-35.83,61.49-43.88,91.9c-4.52,17.07-8.55,34.32-14.17,51.07
		c-8.73,26-28.56,47-35.17,73.81c-7,28.29-6.45,58.09,3.24,85.71c19.15,54.56,51.69,86.18,126.36,96.68
		c40,5.64,72.15-10.89,105.34-30.78c20.46-12.26,41.67-23.31,65.15-28.31c24.8-5.27,50.31-6,75.18-10.9
		c55.63-10.95,73.48-63.6,80.71-113.47C479.63,204.17,474.15,138.18,436.2,88.05z"/>
</g>
<g id="freepik--Window--inject-1_00000147905478571423988600000000780664615517102215_">
	<g class="st2">
		<polygon class="st3" points="472.04,42.62 281.28,42.62 274.51,58.85 472.04,58.85 		"/>
		<polygon class="st3" points="472.04,58.85 281.28,58.85 274.51,75.09 472.04,75.09 		"/>
		<polygon class="st3" points="472.04,75.09 281.28,75.09 274.51,91.32 472.04,91.32 		"/>
		<polygon class="st3" points="472.04,91.32 281.28,91.32 274.51,107.56 472.04,107.56 		"/>
		<polygon class="st3" points="472.04,107.56 281.28,107.56 274.51,123.79 472.04,123.79 		"/>
		<polygon class="st3" points="472.04,123.79 281.28,123.79 274.51,140.03 472.04,140.03 		"/>
		<polygon class="st3" points="472.04,140.03 281.28,140.03 274.51,156.26 472.04,156.26 		"/>
		<polygon class="st3" points="472.04,156.26 281.28,156.26 274.51,172.5 472.04,172.5 		"/>
		<polygon class="st3" points="472.04,172.5 281.28,172.5 274.51,188.73 472.04,188.73 		"/>
		<polygon class="st3" points="472.04,188.73 281.28,188.73 274.51,204.97 472.04,204.97 		"/>
		<polygon class="st3" points="472.04,204.97 281.28,204.97 274.51,221.2 472.04,221.2 		"/>
		<polygon class="st3" points="472.04,221.2 281.28,221.2 274.51,237.44 472.04,237.44 		"/>
		<polygon class="st3" points="472.04,237.44 281.28,237.44 274.51,253.67 472.04,253.67 		"/>
		<polygon class="st3" points="472.04,253.67 281.28,253.67 274.51,269.91 472.04,269.91 		"/>
		<polygon class="st3" points="472.04,269.91 281.28,269.91 274.51,286.14 472.04,286.14 		"/>
		<polygon class="st3" points="472.04,286.14 281.28,286.14 274.51,302.38 472.04,302.38 		"/>
		<rect x="272.48" y="37.21" class="st3" width="203.61" height="270.58"/>
	</g>
</g>
<g id="freepik--Lamp--inject-1_00000033342362582798471050000006955146815234911411_">
	<g class="st2">
		<rect x="31.79" y="405.38" class="st3" width="68.42" height="36.11"/>
		<rect x="60.44" y="419.21" class="st3" width="11.11" height="5.38"/>
		<rect x="28.28" y="358.45" class="st3" width="75.43" height="92.39"/>
		<rect x="31.79" y="363.13" class="st3" width="68.42" height="36.11"/>
		<rect x="60.44" y="376.96" class="st3" width="11.11" height="5.38"/>
		<rect x="46.6" y="352.6" class="st3" width="26.9" height="5.85"/>
		<rect x="56.54" y="334.48" class="st3" width="4.68" height="18.13"/>
		<rect x="33.15" y="292.37" class="st3" width="50.29" height="42.1"/>
	</g>
</g>
<g id="freepik--Couch--inject-1_00000122695059225771615840000007517841537591582393_">
	<g class="st2">
		<path class="st3" d="M383.4,407.1v-77.2c0.01-6.12-4.96-11.09-11.08-11.1c-0.01,0-0.01,0-0.02,0H270.88v89.07"/>
		<path class="st3" d="M271.73,318.8H168.42c-6.12,0-11.09,4.97-11.09,11.09c0,0,0,0.01,0,0.01v77.2"/>
		<path class="st3" d="M393.42,414.51v26H270.93V407.1h115.11c4.07-0.01,7.37,3.29,7.38,7.36
			C393.42,414.47,393.42,414.49,393.42,414.51z"/>
		<path class="st3" d="M271.86,407.1H154.68c-4.07,0-7.37,3.3-7.37,7.37c0,0,0,0.01,0,0.01v26h124.55"/>
		<polyline class="st3" points="147.31,451.35 147.31,440.44 393.63,440.44 393.63,451.35 		"/>
		<path class="st3" d="M157.33,362.8c-1.4-1.46-3.34-2.29-5.37-2.29h-22.31c-4.1-0.01-7.43,3.32-7.44,7.42c0,0,0,0.01,0,0.01v82.88"
			/>
		<path class="st3" d="M415.93,450.28v-82.34c0-4.1-3.33-7.43-7.43-7.43h-22.31c-0.96,0-1.91,0.18-2.79,0.55"/>
	</g>
</g>
<g id="freepik--Certification--inject-1_00000023243813754737951570000010229664592082157214_">
	<path class="st21" d="M432.96,35.57v241c0,6.08-4.92,11-11,11h-348c-6.08,0-11-4.92-11-11v-241c0-5.52,4.48-10,10-10h350
		C428.48,25.57,432.96,30.04,432.96,35.57L432.96,35.57z"/>
	<path class="st5" d="M432.96,35.57v20.8h-370v-20.8c0-5.52,4.48-10,10-10h350C428.48,25.57,432.96,30.04,432.96,35.57z"/>
	<path class="st6" d="M301.42,52.34H104.04c-1.85-0.01-3.35-1.51-3.35-3.36l0,0c0-1.85,1.5-3.35,3.35-3.36h197.38
		c1.86,0,3.36,1.5,3.36,3.36l0,0C304.78,50.83,303.27,52.34,301.42,52.34z"/>
	<line class="st7" x1="414.21" y1="46.29" x2="426.97" y2="46.29"/>
	<line class="st7" x1="414.21" y1="48.98" x2="426.97" y2="48.98"/>
	<line class="st7" x1="414.21" y1="51.67" x2="426.97" y2="51.67"/>
	<path class="st8" d="M432.96,35.57v6h-370v-6c0-5.52,4.48-10,10-10h350C428.48,25.57,432.96,30.04,432.96,35.57z"/>
	<path class="st6" d="M396.1,33.9c0.03-1.69-1.31-3.09-3-3.12c-1.69-0.03-3.09,1.31-3.12,3c-0.03,1.69,1.31,3.09,3,3.12
		c0.02,0,0.05,0,0.07,0c1.66,0.03,3.02-1.29,3.05-2.95C396.1,33.93,396.1,33.91,396.1,33.9z"/>
	<path class="st6" d="M408.74,33.9c0.03-1.68-1.32-3.07-3-3.1c-1.68-0.03-3.07,1.32-3.1,3s1.32,3.07,3,3.1c0.02,0,0.03,0,0.05,0
		c1.66,0.03,3.02-1.29,3.05-2.95C408.74,33.93,408.74,33.91,408.74,33.9z"/>
	<path class="st6" d="M421.38,33.9c0.03-1.68-1.32-3.07-3-3.1c-1.68-0.03-3.07,1.32-3.1,3s1.32,3.07,3,3.1c0.02,0,0.03,0,0.05,0
		c1.66,0.03,3.02-1.29,3.05-2.95C421.38,33.93,421.38,33.91,421.38,33.9z"/>
	<rect x="83.91" y="66.64" class="st6" width="329.11" height="205.96"/>
	<rect x="92.3" y="75.17" class="st22" width="312.32" height="188.88"/>
	<rect x="100.28" y="84.62" class="st23" width="296.36" height="170"/>
	<path class="st11" d="M198.9,104.51v1.75h-2.06v-1.86c0-1.75-0.69-2.8-2.27-2.8s-2.27,1-2.27,2.8v10.26c0,1.74,0.72,2.8,2.27,2.8
		s2.27-1.06,2.27-2.8v-2.53h2.06v2.38c0,2.94-1.39,4.88-4.39,4.88s-4.35-1.94-4.35-4.88v-10c0-2.94,1.39-4.88,4.35-4.88
		S198.9,101.56,198.9,104.51z"/>
	<path class="st11" d="M207.77,108.41v1.94h-4.75v6.9h5.83v2h-8V99.81h8v2h-5.83v6.63L207.77,108.41z"/>
	<path class="st11" d="M215.17,99.81c3.05,0,4.32,1.56,4.32,4.44v1.58c0,2.14-0.75,3.47-2.41,4c1.77,0.53,2.44,2,2.44,4.05v3
		c-0.06,0.8,0.07,1.6,0.39,2.33h-2.19c-0.31-0.74-0.43-1.55-0.36-2.35v-3.05c0-2.2-1-2.89-2.83-2.89H213v8.29h-2.16v-19.4H215.17z
		 M214.61,108.96c1.72,0,2.75-0.55,2.75-2.66v-1.86c0-1.74-0.64-2.66-2.25-2.66H213v7.18L214.61,108.96z"/>
	<path class="st11" d="M224.59,119.22v-17.44h-3.57v-2h9.31v2h-3.57v17.44L224.59,119.22z"/>
	<path class="st11" d="M233.99,99.81v19.41h-2.16V99.81H233.99z"/>
	<path class="st11" d="M242.84,108.85v2h-4.47v8.4h-2.16V99.81h7.71v2h-5.55v7.07L242.84,108.85z"/>
	<path class="st11" d="M247.8,99.81v19.41h-2.17V99.81H247.8z"/>
	<path class="st11" d="M258.58,104.51v1.75h-2.08v-1.86c0-1.75-0.69-2.8-2.27-2.8s-2.28,1-2.28,2.8v10.26c0,1.74,0.72,2.8,2.28,2.8
		s2.27-1.06,2.27-2.8v-2.53h2.05v2.38c0,2.94-1.38,4.88-4.38,4.88s-4.35-1.94-4.35-4.88v-10c0-2.94,1.38-4.88,4.35-4.88
		S258.58,101.56,258.58,104.51z"/>
	<path class="st11" d="M262.74,115.31l-0.75,3.91h-2l3.71-19.41h3.13l3.72,19.41h-2.15l-0.75-3.91H262.74z M263.02,113.45h4.32
		l-2.19-11.2L263.02,113.45z"/>
	<path class="st11" d="M275.08,119.22v-17.44h-3.58v-2h9.32v2h-3.58v17.44L275.08,119.22z"/>
	<path class="st11" d="M284.5,99.81v19.41h-2.16V99.81H284.5z"/>
	<path class="st11" d="M286.5,104.51c0-3,1.47-4.88,4.43-4.88s4.47,1.91,4.47,4.88v10c0,2.94-1.47,4.88-4.47,4.88
		s-4.43-1.88-4.43-4.88V104.51z M288.63,114.66c0,1.77,0.75,2.8,2.3,2.8s2.3-1,2.3-2.8v-10.27c0-1.75-0.72-2.8-2.3-2.8
		s-2.3,1-2.3,2.8V114.66z"/>
	<path class="st11" d="M299.39,119.22h-1.89V99.81h2.74l4.49,14v-14h1.92v19.41h-2.25l-5-15.69L299.39,119.22z"/>
	<line class="st7" x1="175.75" y1="130.04" x2="324.62" y2="130.04"/>
	<line class="st7" x1="376.6" y1="149.03" x2="386.9" y2="149.03"/>
	<line class="st7" x1="288.47" y1="149.03" x2="371.16" y2="149.03"/>
	<line class="st7" x1="240.6" y1="149.03" x2="283.75" y2="149.03"/>
	<line class="st7" x1="176.4" y1="149.03" x2="236.24" y2="149.03"/>
	<line class="st7" x1="137.59" y1="149.03" x2="170.23" y2="149.03"/>
	<line class="st7" x1="113.47" y1="149.03" x2="132.88" y2="149.03"/>
	<line class="st7" x1="237.33" y1="158.14" x2="386.9" y2="158.14"/>
	<line class="st7" x1="121.27" y1="158.14" x2="232.62" y2="158.14"/>
	<line class="st7" x1="113.47" y1="158.14" x2="116.92" y2="158.14"/>
	<line class="st7" x1="375.51" y1="167.25" x2="386.9" y2="167.25"/>
	<line class="st7" x1="314.22" y1="167.25" x2="370.07" y2="167.25"/>
	<line class="st7" x1="229.71" y1="167.25" x2="309.87" y2="167.25"/>
	<line class="st7" x1="217.38" y1="167.25" x2="225" y2="167.25"/>
	<line class="st7" x1="113.47" y1="167.25" x2="210.85" y2="167.25"/>
	<line class="st7" x1="341.42" y1="176.37" x2="386.9" y2="176.37"/>
	<line class="st7" x1="178.94" y1="176.37" x2="337.07" y2="176.37"/>
	<line class="st7" x1="164.43" y1="176.37" x2="173.14" y2="176.37"/>
	<line class="st7" x1="113.47" y1="176.37" x2="159.72" y2="176.37"/>
	<line class="st7" x1="358.47" y1="185.48" x2="386.9" y2="185.48"/>
	<line class="st7" x1="236.97" y1="185.48" x2="352.67" y2="185.48"/>
	<line class="st7" x1="190.54" y1="185.48" x2="231.53" y2="185.48"/>
	<line class="st7" x1="125.62" y1="185.48" x2="185.1" y2="185.48"/>
	<line class="st7" x1="113.47" y1="185.48" x2="122" y2="185.48"/>
	<polygon class="st12" points="124.52,225.62 133.9,249.99 138.44,238.97 149.47,243.46 138.69,220.58 	"/>
	<polygon class="st12" points="121.17,220.32 109.82,243.83 120.96,239.62 125.23,250.73 134.55,227.22 	"/>
	<path class="st21" d="M149.44,214.4c0-0.89,1.93-1.91,1.81-2.77s-2.26-1.31-2.51-2.14s1.31-2.37,0.95-3.16s-2.54-0.61-3-1.35
		s0.59-2.64,0-3.3s-2.61,0.13-3.27-0.45s-0.16-2.69-0.9-3.17s-2.46,0.86-3.27,0.49s-0.91-2.54-1.76-2.79s-2.11,1.52-3,1.4
		s-1.59-2.18-2.48-2.18s-1.62,2.06-2.48,2.18s-2.16-1.64-3-1.4s-1,2.43-1.77,2.79s-2.52-1-3.26-0.49s-0.24,2.6-0.9,3.18
		s-2.7-0.22-3.27,0.44s0.49,2.56,0,3.3s-2.65,0.55-3,1.35s1.2,2.31,0.95,3.16s-2.38,1.27-2.51,2.14s1.81,1.88,1.81,2.77
		s-1.93,1.9-1.81,2.76s2.26,1.31,2.51,2.15s-1.32,2.36-0.95,3.15s2.54,0.62,3,1.35s-0.6,2.64,0,3.3s2.6-0.13,3.27,0.45
		s0.16,2.69,0.9,3.17s2.46-0.86,3.26-0.49s0.92,2.54,1.77,2.79s2.11-1.52,3-1.39s1.59,2.17,2.48,2.17s1.62-2.05,2.48-2.17
		s2.16,1.63,3,1.39s1-2.43,1.77-2.79s2.52,1,3.26,0.49s0.24-2.6,0.9-3.17s2.7,0.21,3.27-0.45s-0.49-2.56,0-3.3s2.65-0.55,3-1.35
		s-1.2-2.31-0.95-3.16s2.38-1.26,2.51-2.14S149.44,215.29,149.44,214.4z"/>
	<circle class="st12" cx="132.03" cy="214.4" r="12.06"/>
	<polygon class="st20" points="132.03,206.11 133.89,211.84 139.91,211.84 135.04,215.37 136.9,221.1 132.03,217.56 127.16,221.1 
		129.02,215.37 124.15,211.84 130.17,211.84 	"/>
	<line class="st7" x1="163.63" y1="208.62" x2="209.63" y2="208.62"/>
	<line class="st7" x1="163.63" y1="219.61" x2="209.63" y2="219.61"/>
	<circle class="st23" cx="361.19" cy="217.61" r="17.1"/>
	<circle class="st20" cx="361.18" cy="217.63" r="11.6"/>
</g>
<g id="freepik--Plant--inject-1_00000150088299921964452910000009810495299927153833_">
	<path class="st21" d="M417.5,410.01c0,0-3.5-6-5.25-9.25c-1.22-2.35-2.31-4.77-3.25-7.25c0,0,4.25,2.5,5.5,3.5s6.5,7.25,6.5,7.25
		l1.5-1.75l-1.75-5.75l5.75,6.5l2.75-11.75l4.25,11.25l8-10l0.5,10l9.75-7.75l-3.5,12.25l-3.75,5.25h-26.75L417.5,410.01z"/>
	<path class="st21" d="M416,410.01c0,0-2.25-1-6-5.5c-2.4-2.92-4.57-6.01-6.5-9.25c0,0,8.5,4.75,11.5,7c2.56,2.19,4.9,4.62,7,7.25
		c0,0-2.5-6.25-2.75-9.25s-0.5-9.5-0.5-9.5s7.25,7.25,7.75,9.25s3.25,8.75,3.25,8.75c0.83-3.05,1.5-6.13,2-9.25
		c0.5-3.75,4.5-9.75,4.5-9.75s0.5,4.25,0.75,8.5s-2.25,12.25-2.25,12.25s3.25-7.75,6.5-11.5c2.55-2.79,5.31-5.38,8.25-7.75
		c0,0-2.5,7.75-3.5,11.25c-0.93,2.72-2.19,5.33-3.75,7.75c2.35-2.97,4.85-5.8,7.5-8.5c2.44-1.95,5.03-3.71,7.75-5.25
		c0,0-2.75,5.25-4.75,8.25c-1.87,2.6-3.87,5.11-6,7.5H416V410.01z"/>
	<polygon class="st6" points="451.2,409.51 449.47,424.76 446.5,450.84 415.17,450.84 412.2,424.76 410.47,409.51 	"/>
	<polygon class="st21" points="449.47,424.76 446.5,450.84 415.17,450.84 412.2,424.76 	"/>
	<circle class="st11" cx="418" cy="430.51" r="1.5"/>
	<circle class="st11" cx="429" cy="430.51" r="1.5"/>
	<circle class="st11" cx="422.25" cy="438.26" r="1.5"/>
	<circle class="st11" cx="435.5" cy="438.26" r="1.5"/>
	<circle class="st11" cx="444.25" cy="438.26" r="1.5"/>
	<circle class="st11" cx="440" cy="430.51" r="1.5"/>
	<circle class="st11" cx="418" cy="444.51" r="1.5"/>
	<circle class="st11" cx="429" cy="444.51" r="1.5"/>
	<circle class="st11" cx="440" cy="444.51" r="1.5"/>
</g>
<ellipse transform="matrix(2.443132e-03 -1 1 2.443132e-03 -25.8235 537.8035)" class="st13" cx="256.65" cy="281.85" rx="13.8" ry="9.03"/>
<path class="st12" d="M267.99,247.3c0,0-4.87,2.79-9.51-0.23s-1.39-4.4-0.46-6.26s-1.39-2.32-1.86-4.87s1.16-4.64,2.09-4.87
	s0.7-2.79,0.7-5.34s3-4.87,4.4-4.87s2.32-1.85,3.25-4.17s2.79-4.41,6-3s4.87,1.39,6.5-0.93s5.56-2.78,7-1.62s2.08,3.48,4.87,1.16
	s6.26-1.85,7.88-0.23s1.39,3.48,4,2.55s6.72,0.46,7.65,3.25s6,5.8,7.89,5.1s5.1,0,3.47,3.48s0.24,5.8,1.63,5.8s4.41,0.93,2.78,3.94
	s-2.78,5.34-0.93,6.26s4.87,1.16,2.56,5.11s-4.18,3.71-3.48,6s2.08,3,0,4.64s-4.64,2.32-4.64,3.71s2.78,2.08-0.47,3.24
	c-1.87,0.68-3.82,1.15-5.8,1.4c0,0-4.63-12.53-17.86-16.7s-20.87-3.72-23.89-2.09S267.99,247.3,267.99,247.3z"/>
<path class="st6" d="M272.66,332.34l-17,7.84c0,0-8.79,48.66-8.16,62.16s8.16,47.09,8.16,47.09h40.84c0,0-6.28-41.13-3.14-55.88
	s10.68-55.25,10.68-55.25s-12.56-3.45-16.33-4.08S272.66,332.34,272.66,332.34z"/>
<path class="st11" d="M253.16,355.07l47,4.06c-0.38,2-0.76,4-1.15,6l-46.8-4C252.5,359.01,252.85,356.98,253.16,355.07z
	 M293.38,393.51c0.36-1.7,0.78-3.74,1.24-6l-45.66-3.94c-0.26,2.1-0.49,4.13-0.7,6.06l45.12,3.91V393.51z M297.38,373.29l-46.49-4
	c-0.3,2-0.6,4-0.88,6.06l46.19,4c0.43-1.94,0.82-3.96,1.22-6.02L297.38,373.29z M247.53,398.53c-0.06,1.44-0.07,2.71,0,3.77
	c0,0.73,0.09,1.52,0.16,2.35l44.81,2.86c0-2.14,0-4.2,0-6.12L247.53,398.53z M255.95,340.01l-0.28,0.13c0,0-0.4,2.24-1,5.89
	l47.16,4.08c0.42-2.27,0.81-4.31,1.13-6L255.95,340.01z M293.95,429.43l-42.45-0.45c0.4,2.12,0.81,4.17,1.2,6.12l42,0.48
	c-0.2-1.92-0.46-3.98-0.68-6.07L293.95,429.43z M249.68,419.35l43.57,2.56c-0.17-2.05-0.32-4.1-0.45-6.15l-44.11-2.59
	c0.36,2.03,0.7,4.11,1.06,6.22L249.68,419.35z"/>
<path class="st14" d="M270.15,323.51c0,0-3.45,13.18-3.76,20.09s6.9,12.55,17.26,11.61s12.24-12.24,12.24-15.07
	s0.61-26.63,0.61-26.63c-3.47,2.97-7.15,5.7-11,8.16C279.57,325.43,270.15,323.51,270.15,323.51z"/>
<path class="st8" d="M279.57,334.85c9.81-4.7,14.7-13.93,16.91-19.79c0-1,0-1.56,0-1.56c-3.47,2.97-7.15,5.7-11,8.16
	c-6,3.77-15.38,1.89-15.38,1.89s-2.15,8.24-3.21,15.1C271.3,338.09,275.58,336.81,279.57,334.85z"/>
<path class="st15" d="M313.19,273.15c0,0-0.4-13.92-5.57-21.88s-16.07-12.83-28.24-10.76c-15.1,2.6-21.88,13.92-24.27,23.47
	s0.4,23.47,0.4,33s11.14,26.65,14.32,29.44s8.09,3.71,13.7,0.87c5.15-2.62,13.62-11.53,18.79-16.7s8.25-20.55,9.05-24.13
	S313.19,273.15,313.19,273.15z"/>
<path class="st16" d="M271.01,300.19c0,0-0.47,3,6.49,2.55"/>
<path class="st16" d="M268.92,308.07c0,0,8.12,5.57,16.24,0.24"/>
<path class="st17" d="M285.16,289.51c0,0,2.08-3.48,8.12-0.47"/>
<path class="st11" d="M268.92,287.43c0,1.67-0.78,3-1.74,3s-1.74-1.35-1.74-3s0.78-3,1.74-3S268.92,285.77,268.92,287.43z"/>
<path class="st16" d="M261.5,277.92c0,0,2.09-4.64,9-2.32"/>
<path class="st16" d="M282.14,277.51c0,0,6.5-3.48,13.69,1.85"/>
<path class="st12" d="M279.38,240.51c-15.1,2.6-21.88,13.92-24.27,23.47c-0.5,2.12-0.79,4.28-0.88,6.46
	c0.78-2.43,4.83-13.09,16.31-16c13-3.24,24.36,0.93,28.3,6.5s3,12.76,4.41,16.24c0.88,2.2,5.3,5.52,8.43,7.66
	c0.72-4.27,1.51-11.74,1.51-11.74s-0.4-13.92-5.57-21.88S291.55,238.44,279.38,240.51z"/>
<path class="st4" d="M309.28,275.6c0,0,1.16-12.29-2.32-20.41s-7.65-11.6-7.65-11.6s9.74,5.11,13.22,10s3.94,16.7,3,24.82
	l-7.19-1.16L309.28,275.6z"/>
<path class="st13" d="M318.63,287.66c-1.4,7.49-6.51,12.82-11.42,11.91s-7.74-7.74-6.34-15.23s6.51-12.82,11.41-11.91
	S320.03,280.17,318.63,287.66z"/>
<ellipse transform="matrix(0.1836 -0.983 0.983 0.1836 -28.5699 540.3185)" class="st4" cx="311.01" cy="287.36" rx="10.47" ry="6.85"/>
<path class="st4" d="M261.05,418.83c2.34,16.6,5.22,31.49,5.22,31.49h-17.15c0,0-4.39-22.61-9.73-35.16c-3-7.14-3.73-10-3.78-11.17
	c-2.33,5.55-16.85,39.84-19.45,41c-2.83,1.25-13.19-1-17-2.2s-4.07-6.59-3.44-8.79s27-65.93,29.5-70c2.34-4.15,4.14-8.58,5.34-13.19
	c0.31-1.88-0.32-6.28,2.51-7.84c1.71-0.95,13.73-3.73,23-5.79c6.06-1.35,10.93-2.38,10.93-2.38s-7.5,27.93-8.78,47.71
	c-0.55,8.77,1,23.09,2.83,36.31C261.06,418.82,261.06,418.82,261.05,418.83z"/>
<path class="st4" d="M261.05,418.82c-2.16-3.55-10.92-18.79-12.09-34.66c-1.05-14.24,4.63-37.61,7.13-47
	c6.06-1.35,10.93-2.38,10.93-2.38s-7.52,27.95-8.8,47.73C257.67,391.28,259.18,405.6,261.05,418.82z"/>
<path class="st7" d="M238.03,371.09c0.78-3.39,1.36-5.22,1.36-5.22"/>
<path class="st7" d="M235.94,403.23c0,0-1.89-6.6-0.32-18.52c0.42-3.15,0.87-5.95,1.32-8.36"/>
<path class="st4" d="M374.06,405.98c-7.22-0.32-43.32-22.81-43.32-22.81s-11.31,22.16-11.62,26.66s8.79,40.49,8.79,40.49H289.3
	c0,0-1.17-12.63-1.41-26.48c-0.11-6.39,0-13,0.47-18.83c1.57-18.31,7.84-70,7.84-70l6.29,0.64c0,0,1.78,0.6,4.57,1.57
	c7.43,2.58,22,7.86,28.39,11.6c8.78,5.14,21,13.5,27,17.36s20.09,12.53,22.91,24.1S381.28,406.3,374.06,405.98z"/>
<path class="st7" d="M307.06,337.18c-0.85,12.86-3.35,43.49-8.74,58.31c-5.16,14.17-8.87,24.16-10.43,28.35
	c-0.11-6.39,0-13,0.47-18.83c1.57-18.31,7.84-70,7.84-70l6.29,0.64C302.49,335.65,304.27,336.21,307.06,337.18z"/>
<line class="st7" x1="330.74" y1="383.16" x2="316.3" y2="378.67"/>
<path class="st7" d="M310.2,368.94c0.42,4.75,1.73,10,5.16,12.94"/>
<path class="st7" d="M310.33,359.07c-0.2,1.8-0.31,3.61-0.31,5.42"/>
<path class="st7" d="M308.5,375.77c0,0,3.45,6.43,7.53,8.68"/>
<path class="st14" d="M330.13,329.75c-0.58-2.36-0.88-4.77-0.9-7.2c0-3.87,0.9-6.05-0.51-5.92s-3.87,1.93-4.64,5s0.9,5.92,1.16,6.95
	c0.16,0.63,0.24,1.28,0.26,1.93c0,0-11.2,0.38-13.26,0.38s-4.12,1.16-4.12,3.09s2.19,3,2.19,3l1,0.52c0,0-1.29,2.44-0.39,3.73
	c0.5,0.74,1.11,1.39,1.81,1.93c-0.55,0.79-0.65,1.82-0.26,2.7c0.33,0.88,0.91,1.64,1.67,2.19c0,0-1.67,1.55,0.52,3.61
	s6.95,2.19,10.29,2.19s6.18,0.12,6.18,0.12l1.42,0.13l11.84,17.64l11.2-12.49c0,0-16.48-16-18.67-18.79S330.13,329.75,330.13,329.75
	z"/>
<path class="st4" d="M355.22,357.76l-15.38,14.44c0,0,14.13,18.84,21.66,28.31s21.35,11,27.31,6.27s6.6-15.38,1.26-22
	S355.22,357.76,355.22,357.76z"/>
<path class="st14" d="M252.3,433.61c0,0,22.58,3.9,24.69,3.9s24.39-5.72,25.89-4.52s11.44,9.64,13.85,12.05
	c1.43,1.42,2.65,3.05,3.61,4.82h-20.77l-6.32-1.51c0,0-5.36,2.48-8.37,2.48s-13.09-0.58-13.09-0.58l-17.74-0.29
	C254.05,449.96,248.08,439.93,252.3,433.61z"/>
<path class="st7" d="M305.89,449.87c0,0-5.12-5.72-7.22-7.23c-1.27-0.92-2.68-1.64-4.17-2.13"/>
<path class="st7" d="M312.82,450.17c0,0-9.94-10.84-11.14-11.75c-1.33-0.77-2.75-1.37-4.22-1.8"/>
<path class="st4" d="M202.92,423.37c0,0-9,7.23-10.54,12s0.6,10.54,5.42,12.35s58.58,2.79,58.58,2.79
	c-0.88,0.41-4.82-3.28-2.58-8.21c1.52-3.34,5.72-8.13,5.72-8.13l-44.86-11.44"/>
<g id="freepik--Device--inject-1_00000111869957828248775480000004102491102821013149_">
	<rect x="94.26" y="448.47" class="st8" width="184.5" height="2.37"/>
	<polygon class="st6" points="211.83,450.84 96.76,450.84 86.12,370.82 201.19,370.82 	"/>
	<polygon class="st6" points="209.49,450.84 94.43,450.84 83.79,370.82 198.85,370.82 	"/>
	<path class="st8" d="M103.32,450.84h105.82l-8-60.4c-14.16,9-31.41,20.65-50.21,35C136.6,436.52,120.5,445.1,103.32,450.84z"/>
	<ellipse class="st6" cx="142.98" cy="410.08" rx="7.56" ry="6.98"/>
</g>
<g id="freepik--Desk--inject-1_00000105393069453105108990000000229840880198751887_">
	<line class="st7" x1="5.67" y1="450.84" x2="467.5" y2="450.84"/>
</g>
</svg>
