<?xml version="1.0" encoding="utf-8"?>
<!-- Generator: Adobe Illustrator 26.3.1, SVG Export Plug-In . SVG Version: 6.00 Build 0)  -->
<svg version="1.1" id="Capa_1" xmlns="http://www.w3.org/2000/svg" xmlns:xlink="http://www.w3.org/1999/xlink" x="0px" y="0px"
	 viewBox="0 0 629 756" style="enable-background:new 0 0 629 756;" xml:space="preserve">
<style type="text/css">
	.st0{fill:#9DD44B;}
	.st1{fill:#F2F2F2;}
	.st2{fill:#FFFFFF;}
	.st3{fill:#CCCCCC;}
	.st4{fill:#FDF24B;}
	.st5{fill:#FFB6B6;}
	.st6{fill:#2F2E41;}
	.st7{fill:#E4E4E4;}
	.st8{opacity:0.1;enable-background:new    ;}
</style>
<g>
	<path class="st0" d="M321.55,67.88c57.65-6.58-0.76,80.98,65.18,105.12s-149,98,39,184c49.68,22.73,149.77,56.04,133,116
		c-17.36,59.62,83.08,9.78,54.14,82.02c-29.53,71.89-55.69,167.35-106.99,188.19c-51.77,20.97-204.47,0.98-283.15-35.21
		c-78.81-36.65,107.62-209.46,71-260s-164.42-38.65-148-111S26.53,78.53,65.73,24C105.54-30.19,264.24,73.86,321.55,67.88z"/>
</g>
<path class="st1" d="M516.79,739.62c-0.76,0.8-1.55,1.59-2.35,2.38h-91.22c-0.75-0.77-1.49-1.56-2.23-2.38
	c-0.03-0.03-0.06-0.07-0.09-0.1c-9.91-10.98-16.15-26.94-20.04-43.77c-0.25-1.02-0.47-2.05-0.69-3.09
	c-1.02-4.73-1.85-9.51-2.53-14.25c-0.12-0.82-0.24-1.64-0.34-2.46c-0.92-6.81-1.54-13.51-1.94-19.8c-0.05-0.81-0.1-1.6-0.15-2.39
	c-0.73-12.52-0.74-25.08-0.02-37.6c0,0,0.12,0,0.35,0.01c0.67,0.03,2.28,0.1,4.65,0.24c6.53,0.4,18.85,1.4,33.34,3.76
	c0.79,0.13,1.59,0.27,2.39,0.41c12.26,2.03,24.35,4.95,36.17,8.76c0.74,0.25,1.47,0.5,2.21,0.75l0.01,0.05l9.07,45.51l3.76-40.51
	c2.99,1.35,5.9,2.79,8.69,4.33c0.78,0.43,1.54,0.86,2.29,1.3c6.38,3.61,12.17,8.18,17.17,13.54
	C545.04,687.28,538.67,716.75,516.79,739.62z"/>
<path class="st2" d="M478.67,682.03l1.58,1.75c18.28,20.46,29.19,39.45,32.55,56.72c0.05,0.25,0.09,0.5,0.14,0.75l-1.17,0.22
	l-1.13,0.2c-3.43-18.83-16.2-38.3-32.14-56.14c-0.51-0.58-1.02-1.17-1.56-1.74c-6.81-7.5-14.14-14.69-21.55-21.41
	c-0.57-0.53-1.15-1.05-1.74-1.58c-9.82-8.82-19.71-16.81-28.52-23.54c-0.62-0.48-1.25-0.95-1.87-1.41
	c-14.97-11.33-26.58-18.84-29.16-20.49c-0.31-0.21-0.49-0.31-0.53-0.34l0.61-0.98l0-0.02l0.62-0.99c0.04,0.03,0.63,0.39,1.71,1.09
	c4.03,2.6,14.86,9.74,28.33,19.9c0.61,0.46,1.23,0.93,1.86,1.41c7.16,5.45,14.99,11.7,22.89,18.54c1.99,1.71,3.93,3.43,5.82,5.14
	c0.59,0.52,1.18,1.04,1.75,1.57C465.17,667.97,472.34,675.08,478.67,682.03z"/>
<path class="st2" d="M434.39,618.35c-0.27,0.65-0.56,1.3-0.86,1.94c-2.28,4.94-5.21,9.57-8.69,13.75c-0.51,0.6-1.03,1.21-1.57,1.81
	c-1.46,1.61-3.01,3.17-4.66,4.67c-6.74,6.1-14.72,10.66-23.4,13.36c-0.28,0.09-0.55,0.18-0.83,0.26c0.05,0.79,0.1,1.57,0.15,2.38
	c0.28-0.08,0.55-0.16,0.83-0.25c9.21-2.78,17.68-7.56,24.81-14.02c1.74-1.57,3.4-3.24,4.97-4.99c0.54-0.59,1.06-1.2,1.56-1.81
	c3.73-4.48,6.83-9.44,9.22-14.75c0.28-0.64,0.56-1.28,0.83-1.93C435.95,618.63,435.16,618.49,434.39,618.35z"/>
<path class="st2" d="M472.5,627.69c-0.12,0.59-0.26,1.18-0.41,1.77c-2.71,11.24-8.48,21.51-16.68,29.67
	c-0.57,0.57-1.15,1.13-1.75,1.67c-0.17,0.17-0.36,0.35-0.54,0.51c-15.13,13.66-35.92,19.15-55.82,14.76
	c-0.23-0.04-0.47-0.1-0.7-0.15c0.12,0.82,0.23,1.65,0.36,2.47c0.23,0.05,0.45,0.1,0.68,0.14c20.4,4.22,41.58-1.53,57.04-15.49
	c0.24-0.22,0.49-0.43,0.72-0.66c0.6-0.56,1.18-1.12,1.76-1.68c8.39-8.39,14.32-18.92,17.15-30.44c0.15-0.6,0.29-1.2,0.42-1.8
	C473.99,628.2,473.25,627.94,472.5,627.69z"/>
<path class="st2" d="M495.83,637.9c0.01,0.56,0.01,1.13,0,1.69c-0.17,15.8-6.3,30.96-17.16,42.44c-0.56,0.6-1.14,1.18-1.72,1.76
	c-0.63,0.61-1.26,1.22-1.91,1.8c-20.65,18.61-51.05,21.53-74.87,7.19c-0.2-0.1-0.39-0.22-0.58-0.34c0.24,1.06,0.48,2.1,0.74,3.14
	c0.18,0.1,0.35,0.2,0.53,0.29c24.47,13.65,54.92,10.21,75.74-8.54c0.65-0.59,1.3-1.18,1.91-1.8c0.6-0.57,1.17-1.15,1.74-1.75
	c11.02-11.62,17.38-26.88,17.87-42.89c0.02-0.54,0.03-1.08,0.03-1.62C497.39,638.8,496.61,638.35,495.83,637.9z"/>
<path class="st2" d="M293.46,203H117.52c-3.05,0-5.52-2.48-5.52-5.54V63.54c0-3.06,2.47-5.53,5.52-5.54h215.96
	c3.05,0,5.52,2.48,5.52,5.54v93.81C338.97,182.55,318.6,202.97,293.46,203z"/>
<path class="st3" d="M293.96,203H118.02c-3.32,0-6.02-2.7-6.02-6.04V63.04c0-3.33,2.7-6.03,6.02-6.04h215.95
	c3.32,0,6.02,2.71,6.02,6.04v93.81C339.97,182.32,319.38,202.97,293.96,203z M118.02,59c-2.22,0-4.02,1.81-4.02,4.03v133.94
	c0,2.23,1.8,4.03,4.02,4.03h175.94c24.31-0.03,44.01-19.78,44.04-44.15V63.03c0-2.23-1.8-4.03-4.02-4.03H118.02z"/>
<path class="st3" d="M290.77,103H160.95c-2.17,0-4.17-1.45-4.59-3.58c-0.57-2.89,1.62-5.42,4.41-5.42h130c2.49,0,4.5,2.02,4.49,4.51
	C295.26,100.99,293.25,103,290.77,103z"/>
<path class="st3" d="M290.77,134h-130c-2.49,0-4.5-2.02-4.5-4.5c0-2.48,2.01-4.49,4.5-4.5h130c3.11,0,5.49,3.15,4.1,6.43
	c-0.68,1.6-2.34,2.57-4.09,2.57H290.77z"/>
<path class="st3" d="M290.77,166h-130c-2.49,0-4.5-2.02-4.5-4.5c0-2.48,2.01-4.49,4.5-4.5h130c3.11,0,5.49,3.15,4.1,6.43
	c-0.68,1.6-2.34,2.57-4.09,2.57H290.77z"/>
<circle class="st4" cx="332.03" cy="63.97" r="26.97"/>
<path class="st2" d="M328.35,78c-0.94,0-1.83-0.44-2.4-1.2l-7.27-9.69c-0.88-1.18-0.91-2.86,0.09-3.94
	c1.32-1.42,3.51-1.25,4.62,0.22l0,0l4.81,6.42l12.28-18.42c0.82-1.22,2.4-1.81,3.75-1.22c1.77,0.77,2.35,2.9,1.33,4.43l-14.71,22.07
	c-0.55,0.82-1.47,1.32-2.45,1.34C328.38,78,328.36,78,328.35,78z"/>
<path class="st2" d="M228.48,319H52.54C27.4,318.97,7.03,298.55,7,273.35v-93.81c0-3.06,2.47-5.53,5.52-5.54h215.95
	c3.05,0,5.52,2.48,5.52,5.54v133.93C234,316.52,231.53,319,228.48,319z"/>
<path class="st3" d="M228.98,319H53.04C27.62,318.97,7.03,298.32,7,272.85v-93.81c0-3.33,2.7-6.03,6.02-6.04h215.95
	c3.32,0,6.02,2.7,6.02,6.04v133.92C235,316.29,232.3,319,228.98,319z M13.02,175C10.8,175,9,176.81,9,179.03v93.82
	c0.03,24.37,19.73,44.12,44.04,44.15h175.94c2.22,0,4.02-1.81,4.02-4.03V179.03c0-2.23-1.8-4.03-4.02-4.03H13.02z"/>
<path class="st3" d="M185.9,219h-130c-3.11,0-5.49-3.15-4.1-6.43c0.68-1.6,2.34-2.57,4.09-2.57h0.01h130c3.11,0,5.49,3.15,4.1,6.43
	c-0.68,1.6-2.34,2.57-4.09,2.57H185.9z"/>
<path class="st3" d="M185.9,250h-130c-2.49,0-4.5-2.02-4.5-4.5c0-2.48,2.01-4.49,4.5-4.5h129.82c2.17,0,4.17,1.45,4.59,3.58
	C190.88,247.47,188.69,250,185.9,250L185.9,250z"/>
<path class="st3" d="M185.9,282h-130c-2.49,0-4.5-2.02-4.5-4.5c0-2.48,2.01-4.49,4.5-4.5h129.82c2.17,0,4.17,1.45,4.59,3.58
	C190.88,279.47,188.69,282,185.9,282L185.9,282z"/>
<circle class="st4" cx="229.03" cy="180.97" r="26.97"/>
<path class="st2" d="M225.35,195c-0.94,0-1.83-0.44-2.4-1.2l-7.27-9.69c-0.88-1.18-0.91-2.86,0.09-3.94
	c1.32-1.42,3.51-1.25,4.62,0.22l4.81,6.42l12.28-18.42c0.82-1.22,2.4-1.81,3.75-1.22c1.77,0.77,2.35,2.9,1.33,4.43l0,0l-14.71,22.07
	c-0.55,0.82-1.47,1.32-2.45,1.34C225.38,195,225.36,195,225.35,195z"/>
<path class="st2" d="M447.88,443H201.56c-25.15-0.03-45.54-20.37-45.56-45.47V260.11c0-3.92,3.19-7.1,7.12-7.11h284.75
	c3.93,0,7.12,3.18,7.12,7.11v175.78C455,439.82,451.81,443,447.88,443z"/>
<path class="st3" d="M448.38,443H202.07c-25.43-0.03-46.04-20.59-46.07-45.97V259.61c0-4.2,3.42-7.6,7.62-7.61h284.75
	c4.21,0,7.62,3.41,7.62,7.61v175.78C456,439.59,452.59,442.99,448.38,443z M163.62,254c-3.1,0-5.62,2.51-5.62,5.61v137.42
	c0.03,24.27,19.74,43.94,44.06,43.97h246.32c3.1,0,5.62-2.51,5.62-5.61V259.61c0-3.1-2.52-5.61-5.62-5.61H163.62z"/>
<path class="st3" d="M392.3,312H218.97c-4.12,0-7.28-4.16-5.49-8.51c0.89-2.16,3.09-3.49,5.43-3.49h0.06H392.3
	c4.12,0,7.28,4.16,5.49,8.51c-0.89,2.16-3.09,3.49-5.43,3.49H392.3z"/>
<path class="st3" d="M392.3,353H218.97c-4.12,0-7.28-4.16-5.49-8.51c0.89-2.16,3.09-3.49,5.43-3.49h0.06h173.17
	c2.83,0,5.42,1.89,6.02,4.66C399,349.56,396.05,353,392.3,353L392.3,353z"/>
<path class="st3" d="M392.3,395H219.13c-2.83,0-5.42-1.89-6.02-4.66c-0.84-3.9,2.1-7.34,5.85-7.34H392.3c4.12,0,7.28,4.16,5.49,8.51
	c-0.89,2.16-3.09,3.49-5.43,3.49H392.3z"/>
<circle class="st4" cx="448.7" cy="263.56" r="34.14"/>
<path class="st2" d="M444.05,281.33c-1.2,0-2.32-0.56-3.04-1.52l-9.31-12.42c-1.26-1.68-0.92-4.06,0.76-5.32
	c1.68-1.26,4.06-0.92,5.32,0.76l0,0l6.09,8.12l15.65-23.47c1.16-1.75,3.52-2.22,5.27-1.05c1.75,1.16,2.22,3.52,1.05,5.27
	l-18.63,27.94c-0.68,1.03-1.82,1.66-3.05,1.69C444.12,281.33,444.08,281.33,444.05,281.33z"/>
<polygon class="st5" points="537.15,714.87 523.26,719.51 498.73,668.15 519.23,661.29 "/>
<path class="st6" d="M545.19,727.14l-44.79,11.98l-0.19-0.57c-1.56-4.66-1.21-6.64,0.98-11.03c2.16-4.37,5.99-7.69,10.62-9.23l0,0
	l6.1-8.94l17.34,1.1l3.91-1.31L545.19,727.14z"/>
<polygon class="st5" points="571,728 556.48,728 549.57,672 571,672 "/>
<path class="st6" d="M575,739l-47,0v-0.6c0-4.92,1.9-6.53,5.36-10.01c3.42-3.46,8.08-5.4,12.93-5.39h0l8.58-6.55L570.9,723l4.1,0
	L575,739z"/>
<path class="st5" d="M460,275.32c1.14,5.8,6.76,9.57,12.56,8.43c0.62-0.12,1.22-0.3,1.81-0.53l16.91,17.65l13.23-7.66l-24.23-24.59
	c-2.51-5.38-8.91-7.71-14.29-5.2C461.49,265.53,459.01,270.45,460,275.32z"/>
<polygon class="st7" points="569.42,364.07 577.04,356.19 532.97,315.36 488.6,275.75 476.32,293.11 522.8,336.51 "/>
<path class="st6" d="M541.67,631.08c0-10.06,0.2-17.24,0.36-23c0.47-16.88,0.59-21.41-5.86-50.47l-1.66-7.46l-9.78,29.34
	c-3.12,9.36-4.72,19.16-4.73,29.03L535.08,699h-29.8L483,602.49l-0.01-29.52c-4.08-4.22-4.08-10.91,0-15.14l7.4-44.23l7.49-59.61
	h82.03c0,0,14.48,30.01,0.09,59.78l0,117.35L572.46,714H549.2L541.67,631.08z"/>
<path class="st7" d="M575.44,461.35l-76.61-6.38l-0.4-0.03l6.11-110.05c0.74-14.16,10.03-26.44,23.46-30.99v-7.7
	c0-3.97,3.22-7.19,7.19-7.19h11.19c2.73-0.01,5.22,1.53,6.43,3.97l5.47,10.95l20.7,16.56c10.22,8.18,2,90.18,1.55,94.5l5.01,25.03
	c1.03,5.15-2.31,10.15-7.46,11.18c-0.61,0.12-1.22,0.18-1.84,0.18C575.98,461.38,575.71,461.37,575.44,461.35z"/>
<path class="st5" d="M493.87,490.52c4.58-3.74,5.26-10.47,1.52-15.05c-0.4-0.49-0.84-0.94-1.32-1.35l7.6-23.23l-12.99-8.06
	l-10.27,32.96c-3.56,4.75-2.6,11.49,2.15,15.06C484.54,493.82,490.04,493.69,493.87,490.52L493.87,490.52z"/>
<polygon class="st7" points="520.59,332.59 510.04,329.07 494.8,397.04 480.77,464.63 501.88,467.74 518.24,395.87 "/>
<ellipse transform="matrix(0.1602 -0.9871 0.9871 0.1602 183.4025 749.391)" class="st5" cx="532.1" cy="266.91" rx="25.16" ry="25.16"/>
<path class="st6" d="M498.25,254.59c0.23-2.38,0.92-4.7,2.01-6.83c1.18,2.56,4.85,3,7.36,1.73c2.51-1.27,4.19-3.69,5.99-5.86
	c4.74-5.72,11.25-10.37,18.63-11.21c7.38-0.85,15.52,2.88,18.31,9.77c1.25-1.74,3.92-1.93,5.81-0.92c1.82,1.15,3.25,2.84,4.08,4.83
	c3.76,7.7,4.13,16.63,1.02,24.62c-3.11,7.86-10.78,18.46-18.7,21.43c-4.81,1.8-9.66-0.5-14.78,0c0.27-5.58,1.35-12.46,1.62-18.04
	c0.15-3.06,0.17-6.47-1.92-8.71c-2.41-2.29-6.23-2.19-8.52,0.22c-0.25,0.26-0.48,0.55-0.67,0.85c-0.26-1.73-0.84-3.4-1.73-4.92
	c-0.92-1.53-2.64-2.41-4.42-2.26c-2.13,0.35-3.45,2.54-5.41,3.46c-2.28,0.91-4.88,0.32-6.54-1.5
	C498.8,259.4,498.03,257,498.25,254.59z"/>
<polygon class="st8" points="535.36,395.9 505.81,455 527.97,455 "/>
</svg>
