<?xml version="1.0" encoding="utf-8"?>
<!-- Generator: Adobe Illustrator 26.3.1, SVG Export Plug-In . SVG Version: 6.00 Build 0)  -->
<svg version="1.1" id="Capa_1" xmlns="http://www.w3.org/2000/svg" xmlns:xlink="http://www.w3.org/1999/xlink" x="0px" y="0px"
	 viewBox="0 0 672 661" style="enable-background:new 0 0 672 661;" xml:space="preserve">
<style type="text/css">
	.st0{fill:#F0AB45;}
	.st1{fill:#F0F0F0;}
	.st2{fill:#FFFFFF;}
	.st3{fill:#E4E4E4;}
	.st4{fill:#E6E6E6;}
	.st5{fill:#9F616A;}
	.st6{fill:#2F2E41;}
	.st7{fill:#CCCCCC;}
</style>
<g>
	<path class="st0" d="M663.91,179.14c-2.86,72.99-68.44,140.65-120.64,210.44c-51.84,70.02-90.3,142.16-155.63,174.35
		c-65.68,31.96-157.87,24.19-228.17-20.2C89.53,499.57,41.83,419.02,19.71,329.72C-2.18,240.06,1.27,142,53.14,100.01
		S205.3,72.08,295.96,56.45c90.9-15.99,171.94-61.34,242.22-44.97C608.1,27.6,667.36,106.03,663.91,179.14z"/>
</g>
<g>
	<path class="st1" d="M471.9,525.28c-0.31,0.35-0.62,0.71-0.92,1.07c-4.19,4.86-7.98,10.06-11.32,15.54
		c-0.27,0.42-0.53,0.85-0.77,1.27c-7.91,13.24-13.3,27.83-15.89,43.04c-0.58,3.44-1.02,6.9-1.31,10.38
		c-0.21,2.68-0.34,5.36-0.38,8.05c-0.16,11.28,0.84,23.83-6.43,32.45c-1.94,2.27-4.32,4.13-6.98,5.48
		c-2.01,1.04-4.13,1.84-6.32,2.44h-22.67c-1.14-0.22-2.28-0.4-3.42-0.58c-0.03,0-0.06-0.01-0.09-0.01l-0.23,0.08l-1.37,0.46
		l-0.8,0.02v-0.02c0.74-0.04,0.74-0.08,0.73-0.12c0-0.07,0-0.15,0.27-0.22v-0.01c-0.29-0.2-0.3-0.39-0.3-0.59l-0.03-0.53
		c0,0-0.01-0.01,0-0.01c-0.01-0.3-0.03-0.6-0.04-0.91c-1.05-26.1,1.51-53.07,13.83-76.05c4.22-7.87,9.66-15.03,16.12-21.21
		c0.04-0.04,0.08-0.08,0.12-0.11c12.81-12.22,29.37-20.21,46.85-19.94C471,525.25,471.45,525.26,471.9,525.28z"/>
	<path class="st2" d="M471.95,525.84c-19.8,10.16-35.89,26.3-45.99,46.13c-2.25,4.23-3.82,8.79-4.65,13.51
		c-0.66,4.62-0.07,9.34,1.7,13.66c1.58,4.06,3.66,8.03,4.22,12.4c0.51,4.54-0.93,9.07-3.97,12.48c-3.64,4.29-8.6,7.02-13.55,9.51
		c-5.49,2.77-11.24,5.57-15.05,10.58c-0.46,0.61-1.38-0.15-0.92-0.75c6.63-8.72,18.32-10.62,26.27-17.72
		c3.71-3.31,6.45-7.76,6.14-12.88c-0.27-4.48-2.41-8.58-4.05-12.67c-1.8-4.19-2.54-8.75-2.16-13.29c0.59-4.75,1.98-9.36,4.12-13.64
		c4.65-9.71,10.81-18.63,18.23-26.42c8.42-8.95,18.31-16.39,29.25-22C472.21,524.39,472.62,525.5,471.95,525.84L471.95,525.84z"/>
	<path class="st2" d="M428.83,565.39c-6.4-4.43-8.64-12.85-5.3-19.87c0.33-0.69,1.41-0.21,1.08,0.48
		c-3.12,6.54-1.02,14.38,4.96,18.48C430.21,564.91,429.46,565.82,428.83,565.39z"/>
	<path class="st2" d="M421.94,597.18c7.59-1.31,14.41-5.42,19.1-11.53c0.46-0.61,1.38,0.15,0.92,0.75
		c-4.89,6.35-12,10.62-19.9,11.96C421.3,598.49,421.19,597.31,421.94,597.18L421.94,597.18z"/>
	<path class="st2" d="M451.33,539.23c2.08,2.19,5.13,3.19,8.11,2.66c0.75-0.14,0.86,1.04,0.12,1.18c-3.29,0.57-6.65-0.52-8.97-2.92
		c-0.24-0.21-0.28-0.58-0.08-0.83C450.71,539.06,451.08,539.02,451.33,539.23L451.33,539.23z"/>
	<path class="st1" d="M527.11,597.64c-0.46,0.1-1.39,0.36-1.39,0.36h-0.22c-6.13,1.33-12.15,3.16-17.99,5.46
		c-0.45,0.18-0.9,0.35-1.35,0.54h-0.22c0,0-27.25,14.24-38.44,24.76c-0.04,0.04-0.08,0.07-0.12,0.11c-0.02,0.03-0.05,0.06-0.08,0.08
		l-0.05,0.05c-4.44,4.2-8.55,8.74-12.31,13.56c0,0.01-0.01,0.02-0.02,0.03c-0.6,0.78-1.21,1.56-1.81,2.41H393.8l-0.8-0.03V645h0.49
		c0-0.06,0.01-0.07,0.02-0.08c0-0.01,0.01-0.01,0.01-0.02c0.07-0.1,0.48-0.29,0.48-0.29v-0.01c0,0-0.25-0.06-0.22-0.08
		c0.06-0.1,0.13-0.18,0.18-0.27c0.4-0.56,0.79-1.13,1.19-1.69c0.65-0.93,1.31-1.86,1.98-2.78c0-0.01,0-0.01-0.13-0.01h0v-0.01
		c0.15-0.01,0.15-0.02,0.16-0.03l0.02-0.02c8.25-11.42,17.53-22.26,28.16-31.34c0.32-0.28,0.64-0.56,0.98-0.82
		c4.81-4.07,9.95-7.74,15.37-10.97c2.96-1.75,6.01-3.36,9.15-4.82c8.1-3.73,16.73-6.17,25.59-6.76h0.02
		c0.02-0.46,0.04-0.47,0.07-0.47c0.03,0,0.05-0.01,0.07-0.01c17.61-2.04,35.66,1.55,49.47,12.29
		C526.42,597.09,526.76,597.36,527.11,597.64z"/>
	<path class="st2" d="M393.75,645H394v0.02l0.06-0.02h15.87c-4.73-0.81-9.45-1.44-14.18-0.53c-0.11,0.02-0.21,0.04-0.32,0.07
		c-0.48,0.09-0.96,0.21-1.44,0.34c-0.03,0.01-0.07,0.02-0.1,0.03c-0.04,0.01-0.08,0.03-0.12,0.06c-0.03,0-0.05,0.01-0.07,0.03
		L393.75,645z"/>
	<path class="st2" d="M526.82,598.18c-0.37-0.06-0.73-0.13-1.1-0.18h-0.01c-7.72-1.26-15.55-1.65-23.35-1.18
		c-0.39,0.02-0.79,0.05-1.19,0.07c-10.83,0.76-21.48,3.18-31.57,7.19c-0.01,0-0.01,0-0.01,0.01c-0.11,0.04-0.22,0.08-0.32,0.12
		c-2.35,0.95-4.67,1.99-6.94,3.11c-4.34,2.02-8.34,4.72-11.85,7.98c-2.81,2.77-4.93,6.16-6.21,9.89c-0.13,0.38-0.26,0.75-0.38,1.13
		c-0.09,0.3-0.18,0.61-0.27,0.91c-1.18,4.19-1.91,8.61-4.09,12.44c-0.61,1.07-1.35,2.06-2.2,2.94c-0.88,0.92-1.88,1.72-2.96,2.39
		h-2.52c1.38-0.6,2.66-1.4,3.79-2.39c0.88-0.76,1.65-1.64,2.29-2.61c2.48-3.74,3.24-8.3,4.4-12.55c0.19-0.69,0.39-1.36,0.61-2.03
		c1.15-3.67,3.09-7.04,5.67-9.89c3.33-3.43,7.21-6.28,11.49-8.41c2.7-1.42,5.47-2.71,8.32-3.86c0.37-0.16,0.74-0.3,1.11-0.44
		c17.97-7,37.49-9.05,56.53-5.96c0.37,0.05,0.73,0.12,1.1,0.18C527.91,597.17,527.57,598.31,526.82,598.18z"/>
	<path class="st2" d="M468.58,603.75c-2.44-7.39,0.84-15.46,7.74-19.06c0.68-0.35,1.25,0.69,0.58,1.04
		c-6.43,3.34-9.47,10.87-7.16,17.74C469.98,604.19,468.82,604.47,468.58,603.75L468.58,603.75z"/>
	<path class="st2" d="M443.94,624.97c6.85,3.53,14.77,4.35,22.19,2.29c0.74-0.2,1.01,0.95,0.28,1.15
		c-7.73,2.12-15.97,1.26-23.09-2.43C442.65,625.63,443.27,624.62,443.94,624.97L443.94,624.97z"/>
	<path class="st2" d="M502.3,596.4c0.34,3.01,2.17,5.64,4.87,7.01c0.68,0.34,0.06,1.35-0.62,1.01c-2.97-1.52-5-4.42-5.4-7.74
		c-0.07-0.32,0.12-0.63,0.44-0.72C501.91,595.89,502.23,596.09,502.3,596.4L502.3,596.4z"/>
	<path class="st1" d="M468.12,199.29c0.27-33.11,1.62-66.54,4.04-100.29c0.04-0.67,0.09-1.33,0.14-2c1.28-17.57,2.85-35.2,4.7-52.9
		V44c0-6.07-4.93-11-11-11H171c-6.05,0.01-10.96,4.9-11,10.95c-2.56,24.37-4.57,48.62-6.02,72.75c-0.06,0.79-0.1,1.57-0.14,2.36
		c-0.72,11.93-1.29,23.83-1.72,35.7c-0.03,0.7-0.06,1.4-0.07,2.1c-2.73,72.83-0.07,145.76,7.95,218.2c0.04,6.05,4.95,10.93,11,10.94
		h295c6.07,0,11-4.93,11-11v-0.11c-1.45-12.87-2.72-25.82-3.82-38.86c-0.16-1.91-0.32-3.82-0.47-5.73
		c-0.76-9.39-1.42-18.82-1.99-28.28c-0.12-1.91-0.23-3.82-0.33-5.73c-1.07-18.94-1.77-38.03-2.1-57.26
		c-0.04-1.91-0.07-3.81-0.1-5.73c-0.12-9.39-0.16-18.82-0.11-28.28C468.08,203.11,468.09,201.2,468.12,199.29z"/>
	<path class="st2" d="M557,108c0-6.07-4.93-11-11-11H251c-6.05,0.01-10.96,4.9-11,10.95c-9.96,94.97-11.61,188.26-4.94,278.05
		c0.81,11.11,1.76,22.16,2.84,33.16c0.58,5.89,1.2,11.76,1.85,17.62c0.08,0.76,0.16,1.52,0.25,2.28c0.04,6.05,4.95,10.93,11,10.94
		h295c6.07,0,11-4.93,11-11v-0.11c-11.93-105.77-11.93-217.06,0-330.79V108z"/>
	<path class="st3" d="M557,108c0-6.07-4.93-11-11-11H251c-6.05,0.01-10.96,4.9-11,10.95c-9.96,94.97-11.61,188.26-4.94,278.05
		c0.81,11.11,1.76,22.16,2.84,33.16c0.58,5.89,1.2,11.76,1.85,17.62c0.08,0.76,0.16,1.52,0.25,2.28c0.04,6.05,4.95,10.93,11,10.94
		h295c6.07,0,11-4.93,11-11v-0.11c-11.93-105.77-11.93-217.06,0-330.79V108z M555,439.06c-0.04,4.95-4.05,8.94-9,8.94H251
		c-4.97-0.01-8.99-4.03-9-9v-0.11c-0.07-0.64-0.14-1.29-0.21-1.93c-0.69-6.12-1.33-12.26-1.93-18.41
		c-1.05-10.79-1.98-21.64-2.79-32.55c-6.67-89.74-5.03-182.97,4.93-277.9V108c0.01-4.97,4.03-8.99,9-9h295c4.95,0,8.97,4,9,8.95
		C543.07,221.77,543.07,333.18,555,439.06z"/>
	<path id="a974c3de-8d03-408b-a459-3ce6ba461bdb-153_00000096740019049748584620000003653847722005814457_" class="st4" d="
		M271.32,199c-1.58,0.01-2.86,1.35-2.86,3.01c0.01,1.65,1.28,2.98,2.86,2.99h239.73c1.58-0.01,2.86-1.35,2.86-3.01
		c-0.01-1.65-1.28-2.98-2.86-2.99H271.32z"/>
	<path id="e9133026-9528-4ac3-aa69-83f109aff1e3-154_00000150100406426037577240000005721662876450703292_" class="st4" d="
		M271.32,216c-1.58,0-2.86,1.35-2.86,3c0,1.65,1.28,2.99,2.86,3h162.74c1.58,0,2.86-1.35,2.86-3c0-1.65-1.28-2.99-2.86-3H271.32z"/>
	<path id="a406ca83-8296-4426-a4ed-8cd27cbcb96b-155_00000031922709597517935120000017894907620298623363_" class="st4" d="
		M271.32,233c-1.58,0-2.86,1.35-2.86,3c0,1.65,1.28,2.99,2.86,3h239.73c1.58,0,2.86-1.35,2.86-3c0-1.65-1.28-2.99-2.86-3H271.32z"/>
	<path id="be321b5a-3e39-41eb-b9b2-711d73db0143-156_00000099649103139299496020000002560106201602604977_" class="st4" d="
		M271.32,250c-1.58,0.01-2.86,1.35-2.86,3.01c0.01,1.65,1.28,2.98,2.86,2.99h162.74c1.58-0.01,2.86-1.35,2.86-3.01
		c-0.01-1.65-1.28-2.98-2.86-2.99H271.32z"/>
	<path id="a5a7e885-834f-470d-9162-1a1fa51c1163-157_00000161602115572397747180000011333620553245337785_" class="st4" d="
		M271.32,296c-1.58,0.01-2.86,1.35-2.86,3.01c0.01,1.65,1.28,2.98,2.86,2.99h239.73c1.58-0.01,2.86-1.35,2.86-3.01
		c-0.01-1.65-1.28-2.98-2.86-2.99H271.32z"/>
	<path id="a5fcdb43-4805-483f-9462-6a7e4850dca6-158_00000016786365044500374910000009831519686860354464_" class="st4" d="
		M271.32,313c-1.58,0-2.86,1.35-2.86,3c0,1.65,1.28,2.99,2.86,3h162.74c1.58,0,2.86-1.35,2.86-3c0-1.65-1.28-2.99-2.86-3H271.32z"/>
	<path id="b765b6a8-7afa-43c2-95d1-39dcbde99f83-159_00000000915214360539084890000001783484498810820229_" class="st4" d="
		M271.32,330c-1.58,0-2.86,1.35-2.86,3c0,1.65,1.28,2.99,2.86,3h239.73c1.58,0,2.86-1.35,2.86-3c0-1.65-1.28-2.99-2.86-3H271.32z"/>
	<path id="e421dd9d-74a5-4920-9c7d-c121b8cd01e8-160_00000021120461812628057880000009230263807584902332_" class="st4" d="
		M271.32,347c-1.58,0.01-2.86,1.35-2.86,3.01c0.01,1.65,1.28,2.98,2.86,2.99h162.74c1.58-0.01,2.86-1.35,2.86-3.01
		c-0.01-1.65-1.28-2.98-2.86-2.99H271.32z"/>
	<path id="ea3081fc-4e36-4189-92a3-e6d1b5b4a040-161_00000097501623466972334310000013650365894680006831_" class="st0" d="
		M318.77,164h-45.55c-1.23,0-2.22-1.02-2.23-2.27v-7.45c0-1.25,1-2.27,2.23-2.27h45.55c1.23,0,2.22,1.02,2.23,2.27v7.45
		C321,162.98,320,164,318.77,164z"/>
	<path class="st0" d="M477.82,399.68l-14.03,4.64c-2.34,0.77-4.68,1.54-7.01,2.32c-2.16,0.71-4.51,1.56-6.83,1.25
		c-1.6-0.21-3.43-1.13-3.93-2.78c-0.47-1.56,0.53-3.19,1.74-4.11c3.35-2.55,7.58,0.05,9.95,2.68c2.9,3.23,4.54,7.39,7.26,10.76
		c2.42,3.03,5.49,5.47,8.98,7.16c6.94,3.28,15.41,2.93,21.6-1.85c7.39-5.7,8.15-15.59,8.19-24.21c-0.03-0.83-0.72-1.48-1.55-1.45
		c-0.79,0.03-1.42,0.66-1.45,1.45c-0.04,7.82-0.48,17.4-7.61,22.29c-6.83,4.68-15.8,3.44-22.08-1.55c-3.5-2.78-5.66-6.41-7.96-10.16
		c-2.24-3.67-5.03-7.22-9.26-8.65c-3.73-1.36-7.91,0.1-9.99,3.49c-1.79,3.01-0.8,6.91,2.21,8.7c0.23,0.14,0.47,0.26,0.72,0.37
		c4.9,2.33,10.5-0.4,15.22-1.96l16.6-5.48C480.45,401.97,479.66,399.07,477.82,399.68L477.82,399.68z"/>
	<polygon class="st5" points="436.26,620.18 426.43,623.42 409.25,587.03 423.76,582.24 	"/>
	<path class="st6" d="M442.44,628.3l-0.64-1.94l-1.68-5.1l-1.14-3.47l-3.13,1.03l-0.65-0.05l-8.59-0.58l-1.14-0.08l-1.7-0.11
		l-1.75-0.12l-4.9,7.12h-0.01c-3.7,1.21-6.76,3.84-8.51,7.32c-0.1,0.21-0.2,0.42-0.3,0.63c-0.24,0.51-0.44,1.04-0.6,1.58
		c-0.74,2.34-0.88,4.82-0.4,7.23c0.12,0.6,0.28,1.19,0.47,1.76l0.03,0.1l0.11,0.35l0.69-0.23l6.03-1.98l21.11-6.95l4.19-1.38
		l1.29-0.43h0.01l2.5-0.82L442.44,628.3z"/>
	<polygon class="st5" points="343,629 332.63,629 327.69,589 343,589 	"/>
	<path class="st6" d="M326.47,453.99l-4.59,7.94c0,0-5.04,1.38-3.4,17.82c1.16,11.61,1.54,63.59,4.47,97.36
		c1.22,14.05,2.88,24.95,5.23,28.48l1.44,1.29l15.07,1.44l0.38-0.13l5.53-39.08c0.99-7.01,0.84-14.14-0.44-21.11l0,0l-1-11
		l13.87-55.7c0,0,14.13,35.7,23.13,69.7c2.17,8.18,10.4,13.39,13.52,20.41c1.05,2.35,2.07,4.63,3.07,6.82
		c6.6,14.41,9.91,24.89,12.41,25.77h2l12-4l2.36-5.94L413.17,540l-13.75-87.29C373.22,438.62,348.65,437.05,326.47,453.99z"/>
	<path class="st0" d="M401.52,336.03c-0.9-1.99-1.97-3.91-3.18-5.73c-2.77-4.32-6.62-7.84-11.17-10.21l-3.94-0.87l-7.06-1.56
		l-3.72-4.17l-6.1-6.49h-21l-2.81,6.49l-2.36,5.73l-1.01,2.44l-17.98,8.99c-0.01,0-0.01,0-0.02,0.01c0.24,1.8,0.48,3.59,0.71,5.37
		c0.51,3.87,0.99,7.69,1.44,11.47c0.23,1.92,0.45,3.83,0.66,5.73c0.67,5.96,1.25,11.82,1.73,17.57c0.43,5.14,0.77,10.21,1.03,15.2
		c0.63,11.34,0.67,22.71,0.14,34.05c-0.14,2.67,2.51,5.71,2.3,8.32c-0.35,4.26-3.64,8.04-4.22,12.11c-0.36,2.5-0.2,5.16-0.83,7.52
		c-0.18,0.69-0.44,1.36-0.78,1.98c0,0.01-0.01,0.01-0.01,0.02c-7.2,12.86-1.55,6.72-2.22,9.61l0.32,0.08
		c0.15,0.04,0.61,0.16,1.35,0.33c4.23,1.01,21.67-15.36,33.38-15.36c7.03,0,25.64,11.56,31.87,12.4c4.93,0.66,9.33,1.26,11.95-1.05
		c0.76-0.67,1.34-1.53,1.69-2.48l0.03-0.09l-0.01-0.09l-0.25-3.35l-0.15-2l-2.14-28.7c-2.44-3.02-2.94-7.17-1.3-10.69l0.44-0.93
		L396.68,386l-0.3-4.05l-0.38-1.37v-0.01l-0.51-10.47l1.51-5.72v-0.01l4.03-11.14l1.88-5.73l1.18-3.6l0.08-0.24
		C403.54,341.04,402.65,338.48,401.52,336.03z"/>
	<path class="st5" d="M419.76,439.44l-20.16-52.1l-9.36-19.02l18.01-9.95l14.5,25.55l9.72,53.38c4.24,2.89,5.33,8.67,2.43,12.91
		s-8.67,5.33-12.91,2.43s-5.33-8.67-2.43-12.91C419.62,439.63,419.69,439.54,419.76,439.44L419.76,439.44z"/>
	<path class="st0" d="M420.17,367.66l-5.16-3.34l-5.93-11.09l-3.06-5.73l-1.93-3.6l-0.82-1.54l-9.27-6.33l-6.26-4.28l-5.1,4.28
		l-2.43,2.04l2.38,9.43l1.44,5.73l3.14,12.43l9.21,16.29l2.29,4.05l1.31,2.33l0.01,0.02l0.18,0.31l23.27-0.97l0.73-0.03l0.04-1.66
		l0.02-0.6c0.01-0.3,0.01-0.6,0.01-0.9C424.23,378.64,422.84,372.87,420.17,367.66z"/>
	<path class="st5" d="M244.04,418.72l41.24-37.69l14.33-15.63l15.8,13.17l-18.55,22.78l-46.22,28.42c-1.16,5-6.15,8.11-11.15,6.95
		s-8.11-6.15-6.95-11.15c1.16-5,6.15-8.11,11.15-6.95C243.81,418.66,243.93,418.69,244.04,418.72L244.04,418.72z"/>
	<path class="st0" d="M329,353.23l1-5.73l-1-11.47v-4.45l-0.28-0.12c-0.93-0.61-1.99-1.01-3.09-1.16c-0.97-0.16-1.96-0.16-2.93,0
		c-0.51,0.08-1.02,0.2-1.51,0.35c-0.01,0-0.01,0-0.02,0.01c-2.96,1.06-5.58,2.92-7.57,5.36l-0.01,0.01c-3,3.57-5.66,7.41-7.94,11.47
		c-1.13,1.92-2.21,3.86-3.22,5.73c-3.82,7.11-6.57,13.27-6.62,13.38l-11.42,14.83l0.16,0.27l2.51,4.29l9.2,15.73l1.46,2.5l3.73-1.99
		c4.35-2.32,7.78-6.05,9.72-10.58l1.33-5.08l0.49-0.58l12.72-15.2l4.29-4.36L329,353.23z"/>
	<circle class="st5" cx="353.76" cy="284.01" r="19.25"/>
	<path class="st6" d="M335.15,271.39c-0.86-2.99-2.57-5.56-1.71-5.56s1.28-2.14,1.28-2.14s0.86-0.43,1.28,0s0.86-2.99,0.86-2.99
		s0.43-1.28,0.86-0.43s0.43,0.43,0.86-0.86s2.57-2.14,2.57-2.14s8.13,0.43,9.41-1.28s15.83-0.43,18.82,1.71s14.79,5.96,7.79,17.96
		c4,7-1.97,19.48-3.51,20.97c-2.44,2.34-4.13,3.19-15.67,5.48c-2.26,0.45-7.81-18.45-7.81-18.45S336.01,274.38,335.15,271.39z"/>
	<path class="st6" d="M343.51,627l-0.63-0.25l-11.27-4.57l-1.73-0.69l-7.31,5.52h-0.19c-8.49,0-15.38,6.89-15.38,15.38V643h40v-16
		H343.51z"/>
	<path class="st7" d="M459.86,643.75c0,0.66-0.53,1.2-1.19,1.25h0h-203.3c-0.66-0.05-1.2-0.58-1.2-1.24c0-0.66,0.54-1.19,1.2-0.76
		h203.3C459.32,642.56,459.86,643.09,459.86,643.75z"/>
	<path class="st2" d="M249.97,33c-3.23,57.34-42.56,106.28-97.86,121.76c-0.03,0.7-0.06,1.4-0.07,2.1
		C208.5,141.33,248.73,91.47,251.97,33H249.97z"/>
	<path class="st2" d="M219.34,33c-9.39,35.68-33.03,65.94-65.37,83.7c-0.06,0.79-0.1,1.57-0.14,2.36
		c33.53-18.02,58.03-49.21,67.58-86.06H219.34z"/>
</g>
</svg>
